<?xml version="1.0" encoding="UTF-8"?>
<svg id="Layer_1" xmlns="http://www.w3.org/2000/svg" version="1.1" viewBox="0 0 2000 2000">
  <!-- Generator: Adobe Illustrator 29.5.1, SVG Export Plug-In . SVG Version: 2.1.0 Build 141)  -->
  <defs>
    <style>
      .st0 {
        fill: none;
        stroke: #4c1e31;
        stroke-miterlimit: 10;
        stroke-width: 18px;
      }

      .st1 {
        fill: #ff4f81;
      }

      .st2 {
        fill: #fff;
      }

      .st3 {
        fill: #4c1e31;
      }

      .st4 {
        opacity: .5;
      }
    </style>
  </defs>
  <g>
    <path class="st1" d="M1046.4,1360c-12.8,0-25.5-2-36.8-5.9-25-7.4-29.1-32.5-32.8-54.6l-.9-5.5c-8-54-9-109.4-10-163-.2-11.1-.4-22.1-.7-33.2.3-6.2,0-12.9-.2-19.9-.9-25.3-1.9-54,24.2-57.9,1.7-.2,3.4-.3,5-.3,11.3,0,19.5,4,23.8,11.6,2.5,4.3,4,10.8,3.7,16.4l.6,8.8c4.7,75.7,9.5,154,35.5,226.4l.7,1.9-1.9.5c-2.2.6-4.2,1.3-6,2.3,11.1,2.2,21.7,6.6,33.3,13.7,12.4,7.6,19.6,19.8,18.5,31.1-1,9.6-7.7,17.2-19,21.2-11,4.1-23.7,6.3-36.9,6.3Z"/>
    <path class="st3" d="M1106.3,1306.7c-7.7-10.5-22.1-20.7-36.3-23.3-7.3-18.3-12.3-37.6-16.1-57.1-3.8-19.6-6.5-39.5-9-59-5-39.8-7.5-80-9.4-120,.4-4.4-1.5-16.5-5.6-22.6-12.4-21.5-46.8-24.9-64.3-8.1-19.9,19.8-13.1,56.8-13.9,81.6,3.5,78.8-1.5,161.4,21.3,237.8,17.1,41.4,78.5,41.7,114.8,28.9,24.8-8.5,34.8-36.9,18.5-58.1ZM1082.6,1352.1c-22.2,8.3-50.1,8-72.5.4-26-7.8-28.5-35.3-32.5-58.7-9.6-64.8-9.1-130.3-10.6-195.9,1.4-28.2-8.8-71.4,22.5-76,10.5-1,21.6,1,26.9,10.5,2.5,4.3,3.7,10.5,3.4,15.4,5,79.4,9.1,160.4,36.1,235.9-2.8.7-5.6,1.8-8.2,3.5-.2,1,.5,2,1.5,2.2,12.6,2.3,23.4,7.4,33.5,13.6,21.4,13.2,25.8,39.7-.2,49.1Z"/>
  </g>
  <g>
    <path class="st1" d="M1733.5,910.4c-4.5-8.7-12.1-15.4-20.7-18.3-20.9-7.6-39.9,9-47,16.5-.2.2-.8.5-1.3.4-.4,0-.8-.4-1-.8-.3-.7-.3-1.5.2-2.3,1.8-4.8,4.3-8.9,7.5-12.4l.6-.7-.2-.9c-1.1-4.4-2.3-7.7-3.6-10.3-3.6-7-8-7.3-11.1-6.3-4.9,1.8-7.2,5.9-9.6,10.3l-.7,1.3c-7.6,15.8-11.3,34.5-14,50.7-.2,1.3-1,2.5-2.2,3.3-10.6,6.8-21,11.7-32,16.8l-3,1.4c-36.2,16.1-73,29.4-107.3,41.4-3,1.9-6.3,5.1-7.8,8.4-3.3,6.2-2.7,14.6,1.6,22.9,2,3.9,4.7,7.5,7.7,10.1,3.1,2.6,7.4,4.1,11.3,4l1.9-.3,3.5-.7c51.8-10.7,102.5-29.2,145.3-45.9,4-1.8,8-3.6,12.2-5.4,29.1-12.7,65.2-28.5,73-60.7,1.7-7.2.6-15.2-3.2-22.5Z"/>
    <path class="st3" d="M1749,935.1c8-35.3-32.6-69.2-65.6-53-.6.3-1.1.7-1.6.9-4.7-14-17.2-26.5-33.2-17.8-19.7,15.1-23.4,43.1-28.2,66.2-20.2,11.9-43.8,20.9-65.8,29.8-23.7,9.4-47.7,18.2-71.8,26.5-6.8,3.3-11.3,8.5-14.8,14.6-11.9,23.3,7.2,59.4,34.9,57.1,53-9.9,103.7-28.5,153.6-48.2,35.4-16.3,82.9-33.2,92.5-76.2ZM1650.8,997.3c-47,18.3-95.4,35.5-145,45.8l-3.4.7-1.7.3c-3.2.1-7.1-1.1-10-3.5-7.8-6.9-14.1-20.9-8.8-30.8,1.3-2.9,4.4-5.9,6.8-7.5,36.3-12.7,72.4-25.9,107.5-41.5,11.9-5.5,23.6-10.8,35.2-18.3,1.6-1,2.7-2.7,3-4.5,2.8-16.8,6.6-35,13.8-50.2,2.7-4.8,4.6-9.1,9.2-10.8,6.7-2.1,10.3,6.9,12.4,15.4-3.3,3.8-5.9,8-7.6,12.7-2.3,3.7,1.6,7.8,4.9,4.8,11.7-12.3,28.6-22.1,45.2-16.1,15.3,5.2,26.5,22.8,22.7,38.7-8.7,35.7-53.2,50.6-84.2,64.8Z"/>
  </g>
  <g>
    <path class="st1" d="M798.9,1360c12.8,0,25.5-2,36.8-5.9,25-7.4,29.1-32.5,32.8-54.6l.9-5.5c8-54,9-109.4,10-163,.2-11.1.4-22.1.7-33.2-.3-6.2,0-12.9.2-19.9.9-25.3,1.9-54-24.2-57.9-1.7-.2-3.4-.3-5-.3-11.3,0-19.5,4-23.8,11.6-2.5,4.3-4,10.8-3.7,16.4l-.6,8.8c-4.7,75.7-9.5,154-35.5,226.4l-.7,1.9,1.9.5c2.2.6,4.2,1.3,6,2.3-11.1,2.2-21.7,6.6-33.3,13.7-12.4,7.6-19.6,19.8-18.5,31.1,1,9.6,7.7,17.2,19,21.2,11,4.1,23.7,6.3,36.9,6.3Z"/>
    <path class="st3" d="M757.4,1364.8c36.3,12.8,97.7,12.4,114.8-28.9,22.8-76.4,17.8-159.1,21.3-237.8-.8-24.9,6-61.8-13.9-81.6-17.5-16.8-51.8-13.4-64.3,8.1-4.1,6.1-5.9,18.2-5.6,22.6-1.9,40-4.4,80.2-9.4,120-2.5,19.6-5.2,39.5-9,59-3.9,19.6-8.8,38.8-16.1,57.1-14.2,2.6-28.7,12.8-36.3,23.3-16.3,21.2-6.3,49.7,18.5,58.1ZM762.5,1302.9c10.1-6.2,20.9-11.3,33.5-13.6,1-.2,1.7-1.2,1.5-2.2-2.6-1.7-5.4-2.8-8.2-3.5,27-75.5,31.2-156.5,36.1-235.9-.3-4.9.9-11.1,3.4-15.4,5.3-9.5,16.4-11.4,26.9-10.5,31.4,4.6,21.1,47.8,22.5,76-1.5,65.6-1,131.1-10.6,195.9-4.1,23.3-6.6,50.9-32.5,58.7-22.4,7.7-50.4,7.9-72.5-.4-26-9.4-21.6-36-.2-49.1Z"/>
  </g>
  <g>
    <path class="st1" d="M482.8,1355.6c8.7,4.6,18.7,5.7,27.5,3.2,21.5-5.8,27.5-30.2,29.1-40.5,0-.3.3-.9.8-1.1.4-.2.8-.1,1.3,0,.7.4,1.1,1.1,1.1,2,1.2,5,1.6,9.7,1,14.5v1c-.1,0,.6.6.6.6,3.4,2.9,6.3,5,8.9,6.4,7,3.7,10.8,1.4,12.7-1.1,3-4.3,2.5-9,1.9-14l-.2-1.4c-2.9-17.3-10.5-34.8-17.6-49.6-.6-1.2-.6-2.7,0-3.9,4.7-11.7,10.5-21.6,16.6-32.1l1.6-2.8c20.4-33.9,42.9-65.9,64.2-95.4,1.4-3.2,2.3-7.7,1.6-11.4-.9-7-6.1-13.5-14.4-17.8-3.9-2-8.2-3.4-12.1-3.8-4-.4-8.4.9-11.5,3.2l-1.4,1.3-2.5,2.5c-36.4,38.5-67.3,82.7-92.8,120.8-2.2,3.8-4.5,7.6-6.9,11.5-16.5,27.1-37.1,60.7-25.1,91.6,2.7,6.9,8.2,12.8,15.5,16.6Z"/>
    <path class="st3" d="M456,1344.2c13.6,33.5,66.4,38,84.1,5.9.3-.6.5-1.2.8-1.7,11.9,8.8,29.3,11.9,37.4-4.4,7.4-23.7-5.6-48.7-14.8-70.5,9.8-21.3,23.9-42.2,36.9-62.1,14-21.2,28.7-42.2,43.7-62.9,3.7-6.6,4.4-13.5,3.7-20.4-3.6-25.9-39.9-44.6-61.3-26.8-37.8,38.5-68.7,82.7-98.2,127.5-19.7,33.6-48.9,74.7-32.2,115.4ZM500.8,1237c28-42,57.8-83.8,92.6-120.6l2.4-2.5,1.2-1.2c2.5-1.9,6.5-3.2,10.3-2.9,10.4,1.2,23.5,9.1,24.9,20.2.6,3.2-.2,7.3-1.3,10-22.5,31.2-44.5,62.7-64.3,95.6-6.6,11.3-13.1,22.3-18.3,35.2-.7,1.8-.6,3.7.1,5.4,7.3,15.3,14.6,32.4,17.4,49,.6,5.5,1.4,10.1-1.4,14.1-4.3,5.6-12.3.2-19-5.5.6-5,.2-10-1-14.8-.2-4.4-5.8-5.5-6.8-1.1-2.6,16.8-10.8,34.5-27.8,39-15.5,4.5-34.8-3.5-40.8-18.7-13.4-34.3,14.6-71.9,31.8-101.4Z"/>
  </g>
  <path class="st1" d="M742.6,1115.7c-84.6,58.5-175.1,96.2-289.7,117-117.5,21.4-193.2,23.1-202.2-277.7-8.9-300.9,66.7-319.8,234.8-290.2,111.2,19.6,206.9,77.8,258.9,114.9"/>
  <path class="st1" d="M1072.4,771.1c50.1-39.8,142.6-102.8,252.7-128.2,166.2-38.3,242.8-23.4,249.5,277.6,6.7,300.8-69,303.1-187.5,287.9-115.5-14.8-207.9-47.8-295.4-101.8"/>
  <path class="st1" d="M908.6,739s111.2-2.3,156.9,26.9c76.8,49.1,68.5,294.2,31.8,335.3-36.6,41.1-178.3,41-178.3,41h-2.3c0,0-141.4,7.5-180.2-31.6-38.7-39.1-59.8-283.4,14.4-336.5,44.1-31.6,157.6-35.1,157.6-35.1Z"/>
  <path class="st0" d="M742.6,1115.7c-84.6,58.5-175.1,96.2-289.7,117-117.5,21.4-193.2,23.1-202.2-277.7-8.9-300.9,66.7-319.8,234.8-290.2,111.2,19.6,206.9,77.8,258.9,114.9"/>
  <path class="st0" d="M1072.4,771.1c50.1-39.8,142.6-102.8,252.7-128.2,166.2-38.3,242.8-23.4,249.5,277.6,6.7,300.8-69,303.1-187.5,287.9-115.5-14.8-207.9-47.8-295.4-101.8"/>
  <path class="st0" d="M908.6,739s111.2-2.3,156.9,26.9c76.8,49.1,68.5,294.2,31.8,335.3-36.6,41.1-178.3,41-178.3,41h-2.3c0,0-141.4,7.5-180.2-31.6-38.7-39.1-59.8-283.4,14.4-336.5,44.1-31.6,157.6-35.1,157.6-35.1Z"/>
  <path class="st3" d="M1116.7,914.4c29.7-31.4,76.3-54.4,117.6-66.1,4.3-1.1,9.2-2.4,13.5-3.4,2.5-.5,3.8,2.9,1.4,4.1-13.5,7-26.9,13.9-40,21.6-15.3,9-30.7,19-45,29.4-12,8.6-23.8,17.8-35,27.2-8.7,6.9-19.7-4.4-12.5-12.9h0Z"/>
  <path class="st3" d="M1129.7,959.1c13.6,6.9,28.7,12.9,43,18.3,9,3.2,18.2,6.6,27.3,9.5,11.9,3.9,25.2,7.8,37.2,11.2,12.6,3.5,25.3,6.7,37.9,10.3,2.4.7,1.9,4.3-.7,4.3-9.9-.3-19.8-.8-29.7-1.9-16.2-1.6-33.2-4.2-49.1-7.8-19.6-4.2-39.2-10.1-57.4-18.5-4.5-2.1-9.4-4.6-13.7-7.2-1.6-.9-2.9-1.8-4.7-3-4.1-2.9-5-8.5-2.2-12.5,2.8-3.9,8-4.9,12-2.5h0Z"/>
  <path class="st3" d="M704.2,925.1c-28-26-62.5-42.4-98.4-53.8-11.8-3.8-23.9-6.6-36.1-8.7-1.2-.2-2.3.6-2.5,1.8-.2,1,.4,2,1.3,2.4,22.2,9.9,43.9,20.2,64.7,32.4,20.3,12,40.8,25.5,59.3,39.6,8.8,6.7,19.7-6,11.7-13.6h0Z"/>
  <path class="st3" d="M693.6,970.5c-43.8,24.7-94.7,41.3-142.6,56.7-2.4.7-1.7,4.5.8,4.3,53.1-5.5,107.3-15.8,152.4-46.4,9.3-7.2-.9-21.1-10.6-14.6h0Z"/>
  <g>
    <path class="st3" d="M913.4,1050.6c-25.4.9-38.4-19.5-38.9-20.3-1.6-2.6-.8-6,1.8-7.6.8-.5,1.7-.8,2.7-.8,2,0,3.8.9,4.9,2.6.4.7,10.3,15.8,29.1,15.1,18.6-.7,25.8-16.2,26.1-16.8.9-1.9,2.8-3.2,4.9-3.2.8,0,1.6.1,2.4.5,2.8,1.2,4,4.5,2.8,7.2-.4.9-10,22.5-35.8,23.4Z"/>
    <g>
      <path class="st2" d="M857.2,961.1c-1.9-20.2-11.3-58.3-54.2-67.7-52.8-11.6-94.9,38.2-82.2,91.5,11.1,46.2,51.4,66.6,91.5,54.3,45.6-14,46.4-61.8,44.8-78Z"/>
      <path class="st3" d="M852.7,961.5c-2.8-30.8-18.8-57-50.5-63.7-35.4-8-67.6,14.3-76.7,48.7-9.2,34.5,8.2,77.1,43.5,88.4,17,5.6,36.4,3.7,52.3-4.2,25.2-12.3,33.9-42.9,31.4-69.2h0ZM861.7,960.7c3.2,44.5-18.4,81.3-65.5,85.3-50.1,4.6-84.3-39-81.3-86.7,2.8-40.7,36.1-74.5,77.9-71.6,41.5,3.1,65.3,33,68.9,73h0Z"/>
      <path class="st3" d="M804.6,915.8c-32.2-.6-50,27.1-49.8,59.2.3,36.7,24.2,53.5,51.2,50,24.5-3.2,42.1-26,41-56.2-1.1-30.1-16.3-52.5-42.4-53ZM825.6,960c-6,2.8-13.8-1.6-17.5-9.7-3.6-8.1-1.7-16.8,4.2-19.5,6-2.7,13.7,1.7,17.4,9.8,3.7,8.1,1.8,16.8-4.1,19.5Z"/>
      <g class="st4">
        <path class="st2" d="M772.3,992.5c-.5-13.2,58.1-15.4,58.6-2.2.5,13.2-12.2,24.5-28.4,25.1-16.2.6-29.7-9.7-30.2-22.9Z"/>
      </g>
    </g>
    <g>
      <path class="st2" d="M963.5,957.2c.4-20.3,6.9-59,49.1-71.5,51.8-15.4,97.5,31.1,88.6,85.2-7.7,46.9-46.4,70.2-87.3,60.8-46.5-10.6-50.8-58.2-50.4-74.5Z"/>
      <path class="st3" d="M959,957.1c.7-38.4,20.4-69.8,59.5-77.5,42.9-8.7,81.2,23.1,87.4,65.2,6.7,47.7-24.5,94.3-75.3,93.4-47.6-.8-71.9-36.1-71.6-81.1h0ZM968,957.3c-.8,26.6,9.8,56.6,36.1,67.3,16.7,7,36.4,7.5,53.1.5,34.7-14.1,49-58.2,37.1-92.3-11.7-33.8-45.8-53.7-80.7-43-31.1,9.1-45.2,36.5-45.7,67.4h0Z"/>
      <path class="st3" d="M974.2,964.1c1.1,30.2,20.3,51.7,45,53,27.2,1.6,49.9-17,47.4-53.6-2.1-32.1-21.9-58.4-54-55.4-26,2.4-39.5,25.9-38.4,56ZM989.4,934.7c3.1-8.3,10.5-13.2,16.6-11,6.1,2.2,8.6,10.8,5.6,19.1-3.1,8.4-10.5,13.3-16.7,11-6.1-2.2-8.6-10.8-5.5-19.1Z"/>
      <g class="st4">
        <path class="st2" d="M1050.5,982.3c-.5-13.2-59.1-11.1-58.6,2.2.5,13.2,14,23.5,30.2,22.9s28.9-11.8,28.4-25.1Z"/>
      </g>
    </g>
  </g>
</svg>