<?xml version="1.0" encoding="UTF-8"?>
<svg id="Layer_1" xmlns="http://www.w3.org/2000/svg" version="1.1" viewBox="0 0 2000 2000">
  <!-- Generator: Adobe Illustrator 29.5.1, SVG Export Plug-In . SVG Version: 2.1.0 Build 141)  -->
  <defs>
    <style>
      .st0 {
        fill: #ff4f81;
      }

      .st1 {
        fill: #fff;
      }

      .st2 {
        fill: #4c1e31;
      }

      .st3 {
        fill: none;
        stroke: #4c1e31;
        stroke-miterlimit: 10;
        stroke-width: 20.4px;
      }

      .st4 {
        opacity: .5;
      }
    </style>
  </defs>
  <g>
    <path class="st0" d="M1140.3,1400.9c-14.5,0-28.9-2.3-41.7-6.7-28.3-8.4-33-36.8-37.2-61.8l-1-6.2c-9.1-61.2-10.2-123.9-11.3-184.6-.2-12.5-.5-25.1-.7-37.6.4-7,0-14.6-.2-22.6-1-28.7-2.1-61.2,27.5-65.5,2-.2,3.8-.3,5.7-.3,12.8,0,22.1,4.5,26.9,13.1,2.9,4.9,4.5,12.2,4.1,18.6l.6,9.9c5.3,85.8,10.8,174.5,40.2,256.5l.8,2.1-2.2.6c-2.5.6-4.7,1.5-6.8,2.6,12.6,2.5,24.6,7.5,37.7,15.6,14,8.6,22.2,22.4,20.9,35.3-1.1,10.9-8.7,19.4-21.5,24-12.4,4.6-26.9,7.1-41.8,7.1Z"/>
    <path class="st2" d="M1208.2,1340.5c-8.7-11.9-25-23.5-41.1-26.4-8.3-20.7-13.9-42.6-18.3-64.7-4.3-22.2-7.3-44.7-10.2-66.9-5.6-45.1-8.5-90.6-10.6-136,.4-5-1.7-18.7-6.3-25.6-14.1-24.4-53-28.2-72.8-9.2-22.6,22.5-14.8,64.3-15.7,92.5,4,89.2-1.7,182.8,24.1,269.4,19.4,46.9,88.9,47.3,130,32.8,28.1-9.6,39.4-41.9,20.9-65.8ZM1181.3,1391.9c-25.1,9.4-56.8,9.1-82.2.4-29.4-8.8-32.3-40-36.8-66.5-10.9-73.4-10.3-147.6-12-221.9,1.6-31.9-10-80.8,25.5-86,11.9-1.1,24.5,1.1,30.5,11.8,2.9,4.9,4.2,11.9,3.9,17.5,5.6,89.9,10.3,181.7,40.9,267.2-3.2.8-6.3,2-9.3,4-.2,1.1.6,2.2,1.7,2.5,14.3,2.7,26.5,8.4,38,15.4,24.3,14.9,29.2,45-.2,55.6Z"/>
  </g>
  <g>
    <path class="st0" d="M1321.2,1356.6c-11.1,0-21.7-4.1-29.2-11.3-18.5-17.1-11.7-44.8-7.9-55.9,0-.3.1-1.1-.3-1.6-.3-.4-.8-.6-1.3-.6-.9,0-1.6.5-2.2,1.4-3.9,4.3-6.7,8.9-8.6,14l-.4,1-1.1.2c-5,1.1-9,1.7-12.3,1.7-8.9,0-11.5-4.3-12.1-7.8-.8-5.9,2.2-10.3,5.4-15l.9-1.4c12-15.8,28.9-29.4,43.8-40.5,1.2-.9,2-2.3,2.1-3.9,1.4-14.2.8-27.2.2-40.9l-.2-3.7c-2.6-44.8-8.4-88.7-14.2-129.5.3-4,1.8-9,4.4-12.3,4.5-6.5,13.2-10.3,23.8-10.3s10,.9,14.1,2.5c4.2,1.7,8,5.3,9.9,9.3l.7,2.1,1.1,3.8c16.2,57.7,24,118.3,29.5,170,.2,4.9.6,10,.9,15.1,2.3,35.8,5.2,80.4-23,105-6.3,5.5-15,8.5-24.3,8.5Z"/>
    <path class="st2" d="M1382.6,1226.6c-6.1-60.4-13.8-121.1-31.4-179.5-12.1-29.1-58.4-29.5-75.6-5.4-4.4,6.6-7.2,13.9-7,22.5,4.2,28.6,7.9,57.4,10.7,86,2.6,26.7,5.7,55.1,4.3,81.7-20.7,16.9-47,35.2-52,62.9-.4,20.6,18.7,26.6,35.2,24.1,0,.7-.1,1.4-.1,2.1.9,41.5,56.1,64.8,87.5,38.4,38.2-32.1,30.5-88.6,28.5-132.7ZM1344.2,1346.6c-14,12-37.6,9.9-50.7-2.8-14.7-13.6-13.6-35.6-7.3-53.8,1.2-4.9-4.9-6.7-7.5-2.4-3.8,4.2-6.7,9-8.8,14.3-9.7,2.2-20.6,3.4-21.9-4.5-.7-5.5,2.6-9.7,6-14.9,11.5-15.2,27.9-28.5,43.3-40,1.6-1.2,2.8-3.2,3-5.3,1.5-15.6.7-30.1.1-44.9-2.6-43.5-8.1-86.7-14.2-129.7.3-3.3,1.7-7.9,4-10.7,7.2-10.4,24.6-11.4,35.6-7.1,4,1.6,7.2,5,8.8,8.3l.6,1.8,1.1,3.8c15.5,55.2,23.4,112.8,29.4,169.6,1.8,38.6,10,91.1-21.4,118.4Z"/>
  </g>
  <g>
    <path class="st0" d="M860,1400.9c14.5,0,28.9-2.3,41.7-6.7,28.3-8.4,33-36.8,37.2-61.8l1-6.2c9.1-61.2,10.2-123.9,11.3-184.6.2-12.5.5-25.1.7-37.6-.4-7,0-14.6.2-22.6,1-28.7,2.1-61.2-27.5-65.5-2-.2-3.8-.3-5.7-.3-12.8,0-22.1,4.5-26.9,13.1-2.9,4.9-4.5,12.2-4.1,18.6l-.6,9.9c-5.3,85.8-10.8,174.5-40.2,256.5l-.8,2.1,2.2.6c2.5.6,4.7,1.5,6.8,2.6-12.6,2.5-24.6,7.5-37.7,15.6-14,8.6-22.2,22.4-20.9,35.3,1.1,10.9,8.7,19.4,21.5,24,12.4,4.6,26.9,7.1,41.8,7.1Z"/>
    <path class="st2" d="M813,1406.4c41.1,14.5,110.6,14.1,130-32.8,25.8-86.6,20.1-180.2,24.1-269.4-.9-28.2,6.8-70-15.7-92.5-19.8-19-58.7-15.2-72.8,9.2-4.6,6.9-6.7,20.6-6.3,25.6-2.1,45.3-5,90.8-10.6,136-2.9,22.2-5.9,44.7-10.2,66.9-4.4,22.1-10,44-18.3,64.7-16.1,3-32.5,14.5-41.1,26.4-18.5,24-7.1,56.2,20.9,65.8ZM818.7,1336.2c11.4-7,23.7-12.8,38-15.4,1.1-.2,1.9-1.3,1.7-2.5-3-1.9-6.1-3.2-9.3-4,30.6-85.5,35.3-177.3,40.9-267.2-.3-5.5,1-12.6,3.9-17.5,6-10.7,18.6-13,30.5-11.8,35.5,5.2,23.9,54.1,25.5,86-1.7,74.3-1.1,148.5-12,221.9-4.6,26.4-7.5,57.7-36.8,66.5-25.4,8.7-57.1,9-82.2-.4-29.4-10.6-24.5-40.7-.2-55.6Z"/>
  </g>
  <g>
    <path class="st0" d="M678.8,1356.6c11.1,0,21.7-4.1,29.2-11.3,18.5-17.1,11.7-44.8,7.9-55.9,0-.3-.1-1.1.3-1.6.3-.4.8-.6,1.3-.6.9,0,1.6.5,2.2,1.4,3.9,4.3,6.7,8.9,8.6,14l.4,1,1.1.2c5,1.1,9,1.7,12.3,1.7,8.9,0,11.5-4.3,12.1-7.8.8-5.9-2.2-10.3-5.4-15l-.9-1.4c-12-15.8-28.9-29.4-43.8-40.5-1.2-.9-2-2.3-2.1-3.9-1.4-14.2-.8-27.2-.2-40.9l.2-3.7c2.6-44.8,8.4-88.7,14.2-129.5-.3-4-1.8-9-4.4-12.3-4.5-6.5-13.2-10.3-23.8-10.3-5,0-10,.9-14.1,2.5-4.2,1.7-8,5.3-9.9,9.3l-.7,2.1-1.1,3.8c-16.2,57.7-24,118.3-29.5,170-.2,4.9-.6,10-.9,15.1-2.3,35.8-5.2,80.4,23,105,6.3,5.5,15,8.5,24.3,8.5Z"/>
    <path class="st2" d="M645.9,1359.3c31.3,26.4,86.6,3.2,87.5-38.4,0-.7-.1-1.4-.1-2.1,16.5,2.6,35.6-3.5,35.2-24.1-5-27.7-31.2-45.9-52-62.9-1.4-26.5,1.7-54.9,4.3-81.7,2.9-28.7,6.5-57.5,10.7-86,.2-8.6-2.7-15.8-7-22.5-17.3-24.1-63.5-23.7-75.6,5.4-17.7,58.5-25.3,119.1-31.4,179.5-2,44.1-9.7,100.6,28.5,132.7ZM634.4,1228.2c6-56.9,13.9-114.4,29.4-169.6l1.1-3.8.6-1.8c1.5-3.3,4.8-6.6,8.8-8.3,11-4.3,28.4-3.3,35.6,7.1,2.2,2.9,3.7,7.5,4,10.7-6.1,43.1-11.6,86.3-14.2,129.7-.6,14.8-1.4,29.3.1,44.9.2,2.1,1.3,4.1,3,5.3,15.4,11.5,31.7,24.8,43.3,40,3.5,5.2,6.7,9.4,6,14.9-1.3,7.9-12.2,6.7-21.9,4.5-2-5.3-5-10.1-8.8-14.3-2.6-4.3-8.7-2.4-7.5,2.4,6.2,18.2,7.3,40.2-7.3,53.8-13.2,12.7-36.7,14.8-50.7,2.8-31.4-27.4-23.3-79.8-21.4-118.4Z"/>
  </g>
  <path class="st0" d="M802.2,1117.6c-97.5,63.7-201.1,103.8-331.4,123.9-133.7,20.7-219.5,20.4-220.8-320.4-1.2-340.9,84.9-360.1,274.4-321.6,125.3,25.5,232,94.2,289.8,137.7"/>
  <path class="st0" d="M1185.8,737.1c57.9-43.6,164.5-112.2,289.9-137.7,189.3-38.5,275.6-19.3,274.3,321.6-1.3,340.8-87.1,341.1-220.8,320.4-130.3-20.1-234-60.2-331.4-123.9"/>
  <path class="st0" d="M1001.3,696s126,.7,176.9,35.1c85.5,57.9,68.9,335.1,26.2,380.5-42.7,45.4-203.1,41.2-203.1,41.2h-2.6s-160.4,4.2-203.1-41.2c-42.7-45.4-59.3-322.7,26.2-380.5,50.9-34.4,179.5-35.1,179.5-35.1Z"/>
  <path class="st3" d="M802.2,1117.6c-97.5,63.7-201.1,103.8-331.4,123.9-133.7,20.7-219.5,20.4-220.8-320.4-1.2-340.9,84.9-360.1,274.4-321.6,125.3,25.5,232,94.2,289.8,137.7"/>
  <path class="st3" d="M1185.8,737.1c57.9-43.6,164.5-112.2,289.9-137.7,189.3-38.5,275.6-19.3,274.3,321.6-1.3,340.8-87.1,341.1-220.8,320.4-130.3-20.1-234-60.2-331.4-123.9"/>
  <path class="st3" d="M1001.3,696s126,.7,176.9,35.1c85.5,57.9,68.9,335.1,26.2,380.5-42.7,45.4-203.1,41.2-203.1,41.2h-2.6s-160.4,4.2-203.1-41.2c-42.7-45.4-59.3-322.7,26.2-380.5,50.9-34.4,179.5-35.1,179.5-35.1Z"/>
  <path class="st2" d="M1231.7,900.7c10-10.4,21.7-19.1,33.6-27.1,30.3-19.9,64-34.3,98.9-43.6,5.8-1.4,12.1-2.8,18-4,2.8-.5,4.2,3.3,1.6,4.6-33.9,16.1-67.1,33.9-97.8,55.3-12.4,8.4-24.7,17.4-36.4,26.6,0,0-3.7,2.9-3.7,2.9l-.4.3c-10.1,7.5-22.1-5.6-13.8-15h0Z"/>
  <path class="st2" d="M1245.1,951.7c12.1,6.6,25.4,12.5,38.1,17.9,23.3,9.7,47.7,18.5,71.9,26.1,17.5,5.7,35.5,10.7,53.1,16,2.7.8,2.2,5-.8,4.8-7.5-.4-14.9-1-22.4-1.7-18.3-1.9-37.5-5.1-55.6-9-24-5.5-47.8-12.3-70.2-22.8-9-4.2-17.6-8.7-25.8-14.6-10.2-8.2.3-23.4,11.6-16.8h0Z"/>
  <path class="st2" d="M764.4,900.7c-30.9-30.3-69.5-49.8-109.8-63.8-13.3-4.6-26.9-8.1-40.6-10.9-1.3-.3-2.6.6-2.9,1.9-.2,1.1.4,2.3,1.4,2.7,24.8,11.8,49.1,24.2,72.4,38.6,22.6,14.2,45.5,30.1,66,46.6,9.8,7.9,22.5-6.2,13.7-15.1h0Z"/>
  <path class="st2" d="M751,951.7c-50.3,26.6-108.4,44-163.2,60-2.7.7-2,5.1.8,4.8,60.3-4.7,121.9-14.7,173.9-48.1,10.7-7.9-.4-24-11.6-16.8h0Z"/>
  <g>
    <path class="st2" d="M1001,1048.3c-29.2,0-43.4-24-44-25.1-1.7-3-.6-6.9,2.4-8.6,1-.5,2-.8,3.1-.8,2.3,0,4.4,1.2,5.5,3.2.5.8,11.2,18.7,32.9,18.7s30.4-17.5,30.8-18.3c1.1-2.1,3.3-3.5,5.7-3.5s1.9.2,2.7.6c3.1,1.5,4.4,5.3,2.9,8.4-.5,1-12.5,25.4-42.2,25.4Z"/>
    <g>
      <g>
        <ellipse class="st2" cx="854.2" cy="968.3" rx="56.9" ry="68"/>
        <g class="st4">
          <path class="st1" d="M819.9,996.1c0-15.5,68.6-15.5,68.6,0s-15.3,28.1-34.3,28.1-34.3-12.6-34.3-28.1Z"/>
        </g>
        <g class="st4">
          <ellipse class="st1" cx="879.4" cy="934.3" rx="9.1" ry="12.8" transform="translate(-349.3 564.9) rotate(-30)"/>
        </g>
      </g>
      <g>
        <ellipse class="st2" cx="1145.8" cy="968.3" rx="56.9" ry="68"/>
        <g class="st4">
          <path class="st1" d="M1180.1,996.1c0-15.5-68.6-15.5-68.6,0,0,15.5,15.3,28.1,34.3,28.1,18.9,0,34.3-12.6,34.3-28.1Z"/>
        </g>
        <g class="st4">
          <ellipse class="st1" cx="1120.6" cy="934.3" rx="12.8" ry="9.1" transform="translate(-248.8 1437.6) rotate(-60)"/>
        </g>
      </g>
    </g>
  </g>
</svg>