<?xml version="1.0" encoding="UTF-8"?>
<svg xmlns="http://www.w3.org/2000/svg" version="1.1" viewBox="0 0 2000 2000">
  <!-- Generator: Adobe Illustrator 29.5.1, SVG Export Plug-In . SVG Version: 2.1.0 Build 141)  -->
  <defs>
    <style>
      .st0 {
        fill: #f3eeff;
      }

      .st1 {
        fill: #c3b1e1;
      }

      .st2 {
        fill: #fff;
      }

      .st3 {
        fill: #4c1e31;
      }

      .st4 {
        fill: #fec553;
      }

      .st5 {
        fill: #7cb164;
      }

      .st6 {
        opacity: .5;
      }
    </style>
  </defs>
  <g id="right_foot">
    <g>
      <path class="st1" d="M1108.6,1574.3c.2,2.9.3,5.8.3,8.8,1.4,34.6,3.7,69.4,8.8,103.8l1,5.5c3.7,22.7,8,48.4,33.6,56,11.5,4,24.7,6.1,37.8,6.1,13.5,0,26.5-2.2,37.8-6.5,11.5-4.2,18.4-11.9,19.4-21.7,1.2-11.6-6.2-24.2-18.8-32-11.9-7.3-22.7-11.7-34.2-14,1.8-1,3.9-1.8,6.1-2.3l1.9-.6-.6-1.8c-10.4-29.1-17.6-59.2-22.5-89.7-.8-4.4-1.5-9-2.1-13.5-9.9-3.7-22.9-5.7-39.4-2.5-6.8,1.3-12.8,3.5-18,6.3l-11-1.8Z"/>
      <path class="st3" d="M1095.7,1585.1c1.5,49.1,5.3,97.9,19.2,144.6,17.6,42.4,80.5,42.8,117.7,29.7,25.4-8.7,35.7-37.9,18.9-59.6-7.9-10.8-22.6-21.3-37.2-23.9-7.5-18.8-12.6-38.5-16.5-58.6-2.5-12.9-4.5-26.1-6.4-39.2,0,0-3.3-8.8-17.6-14.6-7.1-3-16.9-5.2-30.4-5.2-15.4,0-26,3.9-33.2,8.7-11.7,7.9-14.6,18.1-14.6,18.1ZM1111.1,1590s6.3-18.8,32.4-18.8,33.6,14.9,33.6,14.9c5.1,30.6,12.2,60.7,22.7,90-2.9.7-5.7,1.8-8.4,3.6-.2,1,.6,2,1.6,2.2,12.9,2.4,24,7.6,34.4,14,22,13.5,26.4,40.7-.2,50.4-22.7,8.5-51.4,8.2-74.4.4-26.6-7.9-29.2-36.2-33.4-60.2-4.8-32-7.1-64.1-8.4-96.5Z"/>
    </g>
  </g>
  <g id="left_foot">
    <g>
      <path class="st1" d="M885.4,1574.3c-.2,2.9-.3,5.8-.3,8.8-1.4,34.6-3.7,69.4-8.8,103.8l-1,5.5c-3.7,22.7-8,48.4-33.6,56-11.5,4-24.7,6.1-37.8,6.1s-26.5-2.2-37.8-6.5c-11.5-4.2-18.4-11.9-19.4-21.7-1.2-11.6,6.2-24.2,18.8-32,11.9-7.3,22.7-11.7,34.2-14-1.8-1-3.9-1.8-6.1-2.3l-1.9-.6.6-1.8c10.4-29.1,17.6-59.2,22.5-89.7.8-4.4,1.5-9,2.1-13.5,9.9-3.7,22.9-5.7,39.4-2.5,6.8,1.3,12.8,3.5,18,6.3l11-1.8Z"/>
      <path class="st3" d="M883.7,1567c-7.2-4.8-17.7-8.7-33.2-8.7s-23.3,2.2-30.4,5.2c-14.2,5.8-17.6,14.6-17.6,14.6-1.8,13.1-3.9,26.2-6.4,39.2-4,20.1-9.1,39.8-16.5,58.6-14.6,2.7-29.4,13.1-37.2,23.9-16.7,21.7-6.5,50.9,18.9,59.6,37.2,13.1,100.2,12.8,117.7-29.7,14-46.7,17.7-95.5,19.2-144.6,0,0-2.9-10.3-14.6-18.1ZM874.5,1686.5c-4.2,23.9-6.7,52.2-33.4,60.2-23,7.9-51.6,8.1-74.4-.4-26.6-9.6-22.2-36.9-.2-50.4,10.3-6.4,21.4-11.5,34.4-14,1-.2,1.8-1.2,1.6-2.2-2.7-1.8-5.5-2.9-8.4-3.6,10.5-29.3,17.6-59.4,22.7-90,0,0,7.5-14.9,33.6-14.9s32.4,18.8,32.4,18.8c-1.3,32.3-3.6,64.5-8.4,96.5Z"/>
    </g>
  </g>
  <g id="left_hand">
    <g>
      <path class="st1" d="M609.1,1663c10,.9,19.9-1.9,27.3-7.8,18.1-13.9,14.2-39.4,11.7-49.8,0-.3,0-1,.4-1.4.3-.3.7-.5,1.2-.4.8,0,1.4.6,1.9,1.4,3.1,4.2,5.3,8.6,6.6,13.3l.3.9.9.3c4.4,1.4,7.9,2.3,10.9,2.6,8.1.7,10.8-2.9,11.6-6.1,1.2-5.2-1.2-9.5-3.6-14l-.7-1.3c-9.5-15.3-23.6-28.9-36.1-40.2-1-.9-1.6-2.3-1.6-3.7,0-12.9,1.5-24.6,3.2-36.9l.4-3.3c6.1-40.1,14.9-79.3,23.5-115.6,0-3.6-.9-8.2-2.9-11.4-3.5-6.2-11.1-10.4-20.6-11.3-4.5-.4-9.1,0-13,1.1-4,1.2-7.7,4.1-9.7,7.6l-.8,1.8-1.3,3.4c-19.4,50.7-31.5,104.7-40.7,150.8-.6,4.4-1.3,8.9-2.1,13.6-5.1,32.1-11.4,72.1,12,96.6,5.3,5.5,12.8,8.9,21.2,9.7Z"/>
      <path class="st3" d="M579.2,1662.8c26,26.4,77.8,10.1,82-27.3,0-.6,0-1.3,0-1.9,14.7,3.7,32.4-.2,33.7-18.8-2.2-25.4-24.3-44-41.6-61,.9-24,6.1-49.4,10.7-73.3,5-25.6,10.7-51.3,16.8-76.7.9-7.7-1.1-14.5-4.5-20.8-13.5-23.1-55.3-26.6-68.6-1.4-20.8,51.3-32.7,105.3-43.3,159.2-5.5,39.6-17.1,89.9,14.6,122ZM579.8,1543.6c10.2-50.7,22-102,40.6-150.5l1.3-3.3.7-1.6c1.7-2.8,4.9-5.6,8.6-6.7,10.3-2.9,25.8-.6,31.5,9.4,1.8,2.8,2.7,7,2.7,10-9.1,38.3-17.7,76.8-23.6,115.8-1.8,13.3-3.7,26.3-3.6,40.5,0,1.9.9,3.8,2.2,5,12.9,11.7,26.6,25,35.7,39.7,2.7,5,5.3,9,4.2,13.9-1.8,7-11.6,5.1-20.2,2.2-1.4-5-3.7-9.5-6.7-13.6-1.9-4.1-7.6-2.9-6.9,1.6,4.1,16.9,3.3,36.9-11.1,47.9-12.9,10.3-34.4,10.3-46-1.7-26.1-27.3-14.3-73.9-9.5-108.5Z"/>
    </g>
  </g>
  <g id="right_hand">
    <g>
      <path class="st1" d="M1387.9,1663c-10,.9-19.9-1.9-27.3-7.8-18.1-13.9-14.2-39.4-11.7-49.8,0-.3,0-1-.4-1.4-.3-.3-.7-.5-1.2-.4-.8,0-1.4.6-1.9,1.4-3.1,4.2-5.3,8.6-6.6,13.3l-.3.9-.9.3c-4.4,1.4-7.9,2.3-10.9,2.6-8.1.7-10.8-2.9-11.6-6.1-1.2-5.2,1.2-9.5,3.6-14l.7-1.3c9.5-15.3,23.6-28.9,36.1-40.2,1-.9,1.6-2.3,1.6-3.7,0-12.9-1.5-24.6-3.2-36.9l-.4-3.3c-6.1-40.1-14.9-79.3-23.5-115.6,0-3.6.9-8.2,2.9-11.4,3.5-6.2,11.1-10.4,20.6-11.3,4.5-.4,9.1,0,13,1.1,4,1.2,7.7,4.1,9.7,7.6l.8,1.8,1.3,3.4c19.4,50.7,31.5,104.7,40.7,150.8.6,4.4,1.3,8.9,2.1,13.6,5.1,32.1,11.4,72.1-12,96.6-5.3,5.5-12.8,8.9-21.2,9.7Z"/>
      <path class="st3" d="M1432.4,1540.8c-10.5-54-22.5-108-43.3-159.2-13.4-25.2-55.1-21.7-68.6,1.4-3.4,6.3-5.4,13.1-4.5,20.8,6.1,25.4,11.9,51.1,16.8,76.7,4.5,23.9,9.7,49.2,10.7,73.3-17.3,17-39.4,35.6-41.6,61,1.3,18.6,19.1,22.5,33.7,18.8,0,.6,0,1.3,0,1.9,4.3,37.4,56,53.8,82,27.3,31.7-32.1,20.1-82.4,14.6-122ZM1407.7,1652.1c-11.6,12-33,12-46,1.7-14.4-11-15.2-31-11.1-47.9.7-4.5-5-5.7-6.9-1.6-3.1,4.1-5.3,8.7-6.7,13.6-8.6,2.8-18.3,4.8-20.2-2.2-1.1-4.9,1.5-9,4.2-13.9,9.1-14.7,22.7-28,35.7-39.7,1.4-1.2,2.2-3.1,2.2-5,0-14.2-1.9-27.2-3.6-40.5-5.9-39-14.5-77.4-23.6-115.8,0-3,.9-7.2,2.7-10,5.7-10,21.2-12.4,31.5-9.4,3.7,1.1,6.9,3.9,8.6,6.7l.7,1.6,1.3,3.3c18.6,48.5,30.4,99.7,40.6,150.5,4.9,34.6,16.6,81.2-9.5,108.5Z"/>
    </g>
  </g>
  <g id="body">
    <path class="st5" d="M697.7,720.3l2.5,1.4.3-2.8c1.8-16.2,5.3-31.9,10.6-47.7-5.7-35.7-21.9-69.9-46.1-97.7,20.9,18.4,37.9,41.3,49.7,66.7,1,1.9,1.7,3.8,2.5,5.8l2.2,5.7,1.8-3.7c2-4,4.1-8,6.4-11.9,7.8-13,14.8-26.3,20.7-39.6l.4-.9-.6-.8c-9.7-14.3-46.7-61-117.7-62.8h-1.6s-.3,1.5-.3,1.5c-5.8,31.2-18.1,137,69.1,187Z"/>
    <path class="st4" d="M1351.4,756.8h1.2c7.8.5,16,1.4,24.5,2.8l1,.2.7-.7c2.5-2.8,3.8-6.2,3.4-9.8-.3-3.7-2.2-7.1-5.3-9.5l-1.6-1c-2.6-1.6-5.7-2.5-9-2.5s-1,0-1.5,0c-8.9.8-15.7,7.9-15.1,15.8.2,1.2.6,2.2,1.2,3.6l.4,1.1Z"/>
    <path class="st4" d="M1404.4,684.4c-8.9.7-15.6,7.8-15,15.7.6,7.3,7.6,13,15.9,13s1,0,1.5,0c8.9-.8,15.6-7.9,15-15.7-.3-3.7-2.2-7-5.3-9.5-.5-.4-1.1-.8-1.6-1.1-2.6-1.6-5.7-2.5-9-2.5s-1,0-1.6,0Z"/>
    <path class="st4" d="M1358.8,650.6c1.8-4.2,2-8.8.3-13l-2.3-5.8-1.3,6.1c-1.4,6.6-2.6,11.9-4,16.6l-1.8,6.1,4.8-4.2c1.9-1.7,3.4-3.7,4.3-5.8Z"/>
    <path class="st4" d="M1451.6,639.1c-2.4-1.4-5.1-2.2-8.4-2.2h0c-8,.2-14.2,5.9-14.1,12.9.1,3.3,1.6,6.4,4.2,8.6,2.8,2.4,6.4,3.7,10.4,3.7h0c4-.1,7.5-1.6,10.3-4.2,2.5-2.3,3.8-5.5,3.8-8.8-.1-3.2-1.6-6.2-4.2-8.4-.7-.8-1.5-1.2-2.1-1.6Z"/>
    <path class="st4" d="M1396.1,619.4c1.4.6,3,.9,4.5.9,5.3,0,10.4-3.7,12.7-9.1,1.6-3.5,1.8-7.5.6-11.1-1-2.8-2.8-5-5.1-6.4-.3-.2-.6-.3-1.4-.7-1.4-.6-3-1-4.5-1-5.3,0-10.4,3.7-12.7,9.1-1.6,3.7-1.8,7.6-.5,11,1.1,3.4,3.4,5.9,6.4,7.1Z"/>
    <path class="st4" d="M1475.1,582.7c-2.2-3.4-6.1-5.4-10.5-5.4s-5.8.9-8.4,2.5c-3.3,2.2-5.6,5.3-6.6,8.9-.9,3.3-.3,6.8,1.4,9.4,2.1,3.4,6,5.4,10.4,5.4s5.8-.9,8.4-2.5c6.7-4.3,9-12.6,5.3-18.4Z"/>
    <path class="st4" d="M669.5,270.6c1.7,0,3.4-.4,5-1.1,2.9-1.5,5.1-4.1,6-7.4,1.1-3.6.7-7.6-1-11-2.5-5.1-7.5-8.5-12.6-8.5s-3.4.4-5,1.1c-2.8,1.4-4.9,3.8-5.9,6.9-1.2,3.6-.9,7.8.9,11.5,2.5,5.2,7.5,8.5,12.7,8.5Z"/>
    <path class="st4" d="M647.5,327.8c2.6,1.6,5.5,2.5,8.4,2.5s1.6,0,2.5-.2c3.4-.6,6.3-2.5,8-5.2,3.7-5.9,1.3-14.1-5.4-18.3-2.6-1.7-5.4-2.5-8.4-2.5s-1.6,0-2.4.2c-3.4.5-6.3,2.4-8.1,5.2-1.7,2.9-2.2,6.2-1.2,9.5,1,3.6,3.3,6.8,6.6,8.9Z"/>
    <path class="st4" d="M710.3,316c.5,0,1,.1,1.5.1,2.7,0,5.4-1,7.7-2.8,2.9-2.4,4.7-5.9,5.3-9.8,1.1-7.8-3.7-15-10.4-15.9-.6-.1-1.1-.1-1.6-.1-2.7,0-5.4,1-7.7,2.8-2.9,2.4-4.7,5.9-5.3,9.8-1.1,7.8,3.7,15,10.5,15.9Z"/>
    <path class="st4" d="M674.2,388.4c4.6-6.4,2.6-15.9-4.7-21.1-3.1-2.3-6.7-3.5-10.2-3.5h-1.9c-4,.7-7.4,2.6-9.5,5.5-4.6,6.4-2.5,15.9,4.7,21.2,3,2.2,6.7,3.4,10.3,3.4s8.8-2,11.3-5.5Z"/>
    <path class="st4" d="M735.1,378.9h1.2c.5,0,1.1.4,1.7.7l.8.5h1c7.3,0,13.6-6.1,14.7-14.1.6-4.5-.4-8.8-2.7-12.2-2.3-3.3-5.5-5.3-9.1-5.8-.7-.1-1.2-.1-1.9-.1-7.2,0-13.5,6.1-14.7,14.3-.6,4.4.4,8.7,2.8,12.2,1.2,1.8,3,3.3,6.2,4.7Z"/>
    <path class="st4" d="M676.5,432.3c-3.1-2.3-6.7-3.5-10.2-3.5h-1.9c-4,.6-7.2,2.5-9.5,5.5-2.1,3-2.9,6.8-2.2,10.8.8,4.1,3.3,7.8,6.9,10.4,3,2.2,6.7,3.5,10.3,3.5s8.8-2,11.3-5.5c4.5-6.5,2.4-15.9-4.8-21.1Z"/>
    <path class="st3" d="M674.2,506c-2.2,3-3,6.8-2.2,10.8.6,2.5,1.8,4.8,3.8,7.3l.4.4.5.2c4.6,1.4,9.4,3.1,14.5,5.3l.5.2h.6c3.6-.8,6.5-2.6,8.2-5.1,2.1-3,2.9-6.8,2.2-10.7-.8-4.2-3.3-7.9-6.9-10.5-3-2.2-6.7-3.4-10.2-3.4s-8.8,2-11.3,5.5Z"/>
    <path class="st5" d="M1340.2,771.2c-29.6,0-55.4,7.2-76.6,21.4l-.8.5v.9c-1.1,22.6-5.7,44.3-14.1,66.2l-2.1,5.6,4.9-3.4c29.7-20.4,61.5-34.3,94.7-41.3,16.6-3.8,33.4-4.3,47.6-4.3v1.2c-31,1.6-62.2,10.2-90.2,24.9-27.9,14.6-52.1,32.6-72.3,54l-.8,1c-11.1,18.7-24.5,35.4-39.7,49.8l-2.5,2.4,3.3.8c11.3,2.6,29.3,5.8,50.9,5.8,36.4,0,70.5-8.7,101.3-25.7,78.2-43.5,105.8-112.5,106.6-128.2v-.9s-.7-.6-.7-.6c-10.4-8.5-58.4-30-109.6-30Z"/>
    <path class="st5" d="M1238.3,657l2-5.6c13.5-38.2,38.7-74.1,72.5-103.8-16.2,22.4-28.9,43.5-38.8,64.3-10.8,23.2-20.3,48.8-27.5,74.2v.5c-.1,0,0,.5,0,.5,5.7,21,9.4,37,12.1,52l.4,2,2-.6c10.9-3.1,31.8-11.8,50.2-35.4,32.4-41.8,42.8-112.8,30-205.3l-.3-2.1-2.1.6c-25.3,7.4-107.9,38-110.3,120.7,2.7,11.1,5.5,21.8,8.2,32.2l1.5,5.8Z"/>
    <path class="st1" d="M1227.5,673.5c-12.2-44.1-26-94-30-157.1l-.2-3.9-2.9,2.6c-9,8.3-20.1,17.3-35.1,28.5-50.8,38-117.2,46.4-170.4,53.2h-1c-15.1,1.9-31,3.9-45.3,6.6-4.7.8-9.4,1.8-14.9,3.1-67.9,15.9-124.6,51.7-155.6,98.4-27.4,41.3-35.2,90.2-23.1,145.3.8,3.7,1.8,7.1,3.1,11.1,21.7,30.8,52.2,56.7,88.3,75,3.6,1.9,5.1,6.3,3.3,10-1.3,2.5-3.9,4.1-6.6,4.1s-2.2-.3-3.3-.8c-10.7-5.4-20.9-11.5-31.1-18.5l-2.2,2.9c70.7,60.5,183.1,65.5,184.3,65.5h0c1.6.2,10.4,1.2,24.2,1.2,35.3,0,102.9-6.8,159-52.2l.8-.7v-.2c24.7-20.1,44.6-45.9,59.2-76.6,34.4-72.2,19.1-127.6-.4-197.8Z"/>
    <path class="st1" d="M1129.5,474.9c-20.8,17.7-48.4,31.8-77.9,46.8l-.9.5c-34.2,17.5-69.6,35.5-98.4,61.2l-4.6,4.1,6.2-.9c10.3-1.6,21.1-3,32.7-4.4,54.4-6.8,116.1-14.6,164-50.4,64.6-48.3,72.5-68.7,62.6-102.1-5.2-17.5-14-28.8-26-33.7l-1.9-.8-.6,2c-4.2,15.1-16.9,45.3-55,77.6Z"/>
    <path class="st1" d="M1082.6,366.1c4.1,17.2,8.9,36.9,10.6,43.9l.2.8.7.4c12.9,7,21.6,16.5,25.7,28.3,1.9,5.5,2.8,11.4,2.6,17.9v4.3c-.1,0,3.1-2.9,3.1-2.9,36.2-32.8,44.3-62,45.9-70.1l.2-.8-.5-.6c-7.7-10.8-36.6-46.1-85.8-46.1s-5.7.1-8.6.4l-2.6.2,1.1,2.4c3.1,6.8,5.6,14.2,7.5,22Z"/>
    <path class="st1" d="M1013.6,414.5c-4.3-2.1-8.9-3.1-13.9-3.1s-9,.8-13.6,2.5c-11.2,4-15.6,14.4-13.8,32.8v1.2c.1,0,1.3.4,1.3.4,9.8,3.1,20.2,4.7,31,4.7s15-.8,22.2-2.3l.7-.2.4-.6c2.5-3.6,5.1-9,3.3-14-3.3-9.8-9.6-17.4-17.7-21.3Z"/>
    <path class="st1" d="M1049.2,442.8c18.9-9.5,27-17.9,28.2-22.5l.3-1.2-1-.7c-4.6-3.5-9.4-7.4-14.4-11.6-18.9-15.7-40.3-33.6-61.6-33.6s-3.9.2-5.8.5c-11.9,1.9-48.1,7.6-57.8,24.2-3.3,5.5-3.5,12.2-.5,20.3,2.8,7.9,8.9,15.2,17.7,21.2l2.8,1.9v-3.4c.6-24.6,13.5-34.1,24.2-37.8,6.3-2.3,12.5-3.4,18.6-3.4s13.9,1.6,20.2,4.6c11.6,5.6,20.6,16.2,25.3,29.8,1.1,3.3,1.5,6.7,1.2,10l-.3,3.3,2.9-1.5Z"/>
    <path class="st1" d="M923.7,470.4c39.2,13.4,52.9,19.3,69.7,30.2,3.9,2.6,7.3,5,10.5,7.3,8.2,5.9,12.7,9.1,20.2,9.1s1.8,0,2.5,0l1.3.3,17-8.7c20.9-10.7,40.6-20.8,57.7-32l.5-.3.2-.5c2.3-5.2,7.2-18.6,2.6-31.6-2.2-6.4-6.5-11.8-13-16.6l-1.8-1.3-1,2c-4.6,9.6-16.2,18.8-35.4,28.3-6.1,2.9-12.8,5.3-19.4,7.1h-1.1c0,0-.2.3-.2.3-9.6,2.4-19.7,3.7-29.9,3.7-15,0-29.6-2.7-42.4-7.9-19.5-7.8-33.4-20.9-39.1-36.7-4.5-12.2-3.9-23.3,1.6-32.8,11.6-19.8,42.6-27.2,68.3-31.4,2.7-.4,5.4-.6,8.1-.6,26.8,0,51.8,20.9,70,36.2l4.3,3.6-6.8-28.6c-5.6-23.8-16.7-47.2-60.2-58.1-5.3-1.3-10.9-2-16.8-2-44.9,0-97.6,37.7-110.5,79-12.8,41.1,1.3,67.9,43,82Z"/>
    <path class="st1" d="M863.4,396.1l-3.3,1.8c-8,4.4-18.6,13.9-24,34.5-11.3,43.2-.8,66.8,37.4,84,35.4,16.1,57.6,44.8,65.5,56.5l1.2,1.8,1.6-1.4c16.9-15.1,37-29,63.2-43.7l2.9-1.6-2.9-1.6c-3.3-1.9-6.4-4.1-9.9-6.6-2.8-2-6-4.3-9.8-6.8-15.6-10.1-28-15.4-66.4-28.5-43.5-14.9-62.9-44.1-56.2-84.6l.6-3.7Z"/>
    <path class="st1" d="M800.8,531.2c-4.4-1.9-8.9-4.2-13.2-7l-2.5-1.6-.4,2.9c-3.1,25-13.3,65.8-44.4,118-5.3,9-9.9,18.8-14.1,30.4-.1,1.1-.6,2.1-1.5,3.6-13.3,38.7-14.2,82-2.5,122.2.7,2.4,1.5,4.8,2.2,7.1l.7,2.2,3.6-.6c-1.3-41.3,9.1-78.9,30.9-111.7,25.1-37.8,67.1-69.8,118.2-90l2.1-.8-1.3-1.9c-11.4-16.8-41.8-57.6-78.1-72.8Z"/>
    <path class="st1" d="M751.8,445.4c4.2,30.3,27.2,60.7,54.7,72.2,43.4,18.2,77.7,67.3,87.1,81.9l.8,1.2,1.4-.5c8.4-2.8,17.2-5.3,26.1-7.4h.6c0-.1.4-.6.4-.6,1.5-1.7,3-3.2,4.5-4.7l2.2-2.2-.8-1.3c-5.7-8.8-27.1-38.7-61.2-54.1-44-20-58.6-52.2-45.7-101.3,9.5-36.4,32.6-46.4,45.5-49.1l1-.2.4-.9c3.3-8.5,7.8-16.6,13.2-24.1l1.6-2.2-2.6-.7c-8-2.2-16.4-3.2-25-3.2-26,0-51.3,9.8-75.3,29.1-28.6,23.2-31.4,49.8-28.7,68Z"/>
    <path class="st5" d="M738.2,867.2c-5.1-7.4-9.8-15.2-14.6-24.5-22.1-19.1-45.3-35.5-69-48.8-6.9-3.9-13.7-7.6-20.3-10.9,17,5.5,34.7,13.7,53.6,25,7.5,4.5,15.1,9.8,24,16.5l5.2,4-2.4-6.1c-2.7-6.8-4.8-13-6.4-18.7-2.6-8.7-4.6-18.2-6.4-29.2l-1.1-1.3-.8-.4c-45.8-29-96.5-32.2-116.2-32.2h-4.5s0,1.8,0,1.8c-.7,21,4.5,74.3,67.2,117.4,44.5,30.5,81.1,39.8,104,42.2l3.5.4-1.7-3.1c-5.7-10.2-10.3-20.8-13.9-32.1Z"/>
    <g>
      <g>
        <circle class="st0" cx="998.5" cy="1609.6" r="31.5"/>
        <circle class="st0" cx="1061.5" cy="1602.8" r="31.5"/>
        <circle class="st0" cx="1123.6" cy="1591.4" r="31.5"/>
        <circle class="st0" cx="1182.8" cy="1568.8" r="31.5"/>
        <circle class="st0" cx="1237.6" cy="1537.3" r="31.5"/>
        <circle class="st0" cx="1286.7" cy="1497.5" r="31.5"/>
        <circle class="st0" cx="1327.9" cy="1450" r="31.5"/>
        <circle class="st0" cx="1359.4" cy="1395.6" r="31.5"/>
        <circle class="st0" cx="1381.6" cy="1336.3" r="31.5"/>
        <circle class="st0" cx="1389.6" cy="1273.2" r="31.5"/>
        <circle class="st0" cx="935.4" cy="1602.8" r="31.5"/>
        <circle class="st0" cx="873.4" cy="1591.4" r="31.5"/>
        <circle class="st0" cx="814.2" cy="1568.8" r="31.5"/>
        <circle class="st0" cx="759.4" cy="1537.3" r="31.5"/>
        <circle class="st0" cx="710.3" cy="1497.5" r="31.5"/>
        <circle class="st0" cx="669.1" cy="1450" r="31.5"/>
        <circle class="st0" cx="637.6" cy="1395.6" r="31.5"/>
        <circle class="st0" cx="615.4" cy="1336.3" r="31.5"/>
        <circle class="st0" cx="607.4" cy="1273.2" r="31.5"/>
      </g>
      <g>
        <circle class="st0" cx="998.5" cy="936.9" r="31.5"/>
        <circle class="st0" cx="935.4" cy="943.7" r="31.5"/>
        <circle class="st0" cx="873.4" cy="955.1" r="31.5"/>
        <circle class="st0" cx="814.2" cy="977.7" r="31.5"/>
        <circle class="st0" cx="759.4" cy="1009.2" r="31.5"/>
        <circle class="st0" cx="710.3" cy="1048.9" r="31.5"/>
        <circle class="st0" cx="669.1" cy="1096.4" r="31.5"/>
        <circle class="st0" cx="637.6" cy="1150.9" r="31.5"/>
        <circle class="st0" cx="615.4" cy="1210.2" r="31.5"/>
        <circle class="st0" cx="1061.5" cy="943.7" r="31.5"/>
        <circle class="st0" cx="1123.6" cy="955.1" r="31.5"/>
        <circle class="st0" cx="1182.8" cy="977.7" r="31.5"/>
        <circle class="st0" cx="1237.6" cy="1009.2" r="31.5"/>
        <circle class="st0" cx="1286.7" cy="1048.9" r="31.5"/>
        <circle class="st0" cx="1327.9" cy="1096.4" r="31.5"/>
        <circle class="st0" cx="1359.4" cy="1150.9" r="31.5"/>
        <circle class="st0" cx="1381.6" cy="1210.2" r="31.5"/>
      </g>
    </g>
    <g>
      <g>
        <path class="st3" d="M998.5,1649.8c-22.2,0-40.2-18-40.2-40.2s18-40.2,40.2-40.2,40.2,18,40.2,40.2-18.1,40.2-40.2,40.2ZM998.5,1586.8c-12.6,0-22.8,10.2-22.8,22.8s10.2,22.8,22.8,22.8,22.8-10.2,22.8-22.8-10.2-22.8-22.8-22.8Z"/>
        <path class="st3" d="M1061.5,1643c-22.2,0-40.2-18-40.2-40.2s18.1-40.2,40.2-40.2,40.2,18,40.2,40.2-18,40.2-40.2,40.2ZM1061.5,1580c-12.6,0-22.8,10.2-22.8,22.8s10.2,22.8,22.8,22.8,22.8-10.2,22.8-22.8-10.2-22.8-22.8-22.8Z"/>
        <path class="st3" d="M1123.6,1631.6c-22.2,0-40.2-18-40.2-40.2s18.1-40.2,40.2-40.2,40.2,18,40.2,40.2-18,40.2-40.2,40.2ZM1123.6,1568.6c-12.6,0-22.8,10.2-22.8,22.8s10.2,22.8,22.8,22.8,22.8-10.2,22.8-22.8-10.2-22.8-22.8-22.8Z"/>
        <path class="st3" d="M1182.8,1609c-22.2,0-40.2-18-40.2-40.2s18.1-40.2,40.2-40.2,40.2,18,40.2,40.2-18.1,40.2-40.2,40.2ZM1182.8,1546c-12.6,0-22.8,10.2-22.8,22.8s10.2,22.8,22.8,22.8,22.8-10.2,22.8-22.8-10.2-22.8-22.8-22.8Z"/>
        <path class="st3" d="M1237.6,1577.5c-22.2,0-40.2-18-40.2-40.2s18.1-40.2,40.2-40.2,40.2,18,40.2,40.2-18.1,40.2-40.2,40.2ZM1237.6,1514.4c-12.6,0-22.8,10.2-22.8,22.8s10.2,22.8,22.8,22.8,22.8-10.2,22.8-22.8-10.2-22.8-22.8-22.8Z"/>
        <path class="st3" d="M1286.7,1537.7c-22.2,0-40.2-18-40.2-40.2s18.1-40.2,40.2-40.2,40.2,18,40.2,40.2-18.1,40.2-40.2,40.2ZM1286.7,1474.7c-12.6,0-22.8,10.2-22.8,22.8s10.2,22.8,22.8,22.8,22.8-10.2,22.8-22.8-10.2-22.8-22.8-22.8Z"/>
        <path class="st3" d="M1327.9,1490.3c-22.2,0-40.2-18-40.2-40.2s18.1-40.2,40.2-40.2,40.2,18,40.2,40.2-18,40.2-40.2,40.2ZM1327.9,1427.2c-12.6,0-22.8,10.2-22.8,22.8s10.2,22.8,22.8,22.8,22.8-10.2,22.8-22.8-10.2-22.8-22.8-22.8Z"/>
        <path class="st3" d="M1359.4,1435.8c-22.2,0-40.2-18-40.2-40.2s18-40.2,40.2-40.2,40.2,18,40.2,40.2-18.1,40.2-40.2,40.2ZM1359.4,1372.8c-12.6,0-22.8,10.2-22.8,22.8s10.2,22.8,22.8,22.8,22.8-10.2,22.8-22.8-10.2-22.8-22.8-22.8Z"/>
        <path class="st3" d="M1381.6,1376.5c-22.2,0-40.2-18-40.2-40.2s18-40.2,40.2-40.2,40.2,18,40.2,40.2-18.1,40.2-40.2,40.2ZM1381.6,1313.5c-12.6,0-22.8,10.2-22.8,22.8s10.2,22.8,22.8,22.8,22.8-10.2,22.8-22.8-10.2-22.8-22.8-22.8Z"/>
        <path class="st3" d="M1389.6,1313.5c-22.2,0-40.2-18-40.2-40.2s18-40.2,40.2-40.2,40.2,18,40.2,40.2-18.1,40.2-40.2,40.2ZM1389.6,1250.4c-12.6,0-22.8,10.2-22.8,22.8s10.2,22.8,22.8,22.8,22.8-10.2,22.8-22.8-10.2-22.8-22.8-22.8Z"/>
        <path class="st3" d="M935.4,1643c-22.2,0-40.2-18-40.2-40.2s18-40.2,40.2-40.2,40.2,18,40.2,40.2-18.1,40.2-40.2,40.2ZM935.4,1580c-12.6,0-22.8,10.2-22.8,22.8s10.2,22.8,22.8,22.8,22.8-10.2,22.8-22.8-10.2-22.8-22.8-22.8Z"/>
        <path class="st3" d="M873.3,1631.6c-22.2,0-40.2-18-40.2-40.2s18-40.2,40.2-40.2,40.2,18,40.2,40.2-18.1,40.2-40.2,40.2ZM873.3,1568.6c-12.6,0-22.8,10.2-22.8,22.8s10.2,22.8,22.8,22.8,22.8-10.2,22.8-22.8-10.2-22.8-22.8-22.8Z"/>
        <path class="st3" d="M814.2,1609c-22.2,0-40.2-18-40.2-40.2s18.1-40.2,40.2-40.2,40.2,18,40.2,40.2-18.1,40.2-40.2,40.2ZM814.2,1546c-12.6,0-22.8,10.2-22.8,22.8s10.2,22.8,22.8,22.8,22.8-10.2,22.8-22.8-10.2-22.8-22.8-22.8Z"/>
        <path class="st3" d="M759.4,1577.5c-22.2,0-40.2-18-40.2-40.2s18.1-40.2,40.2-40.2,40.2,18,40.2,40.2-18,40.2-40.2,40.2ZM759.4,1514.4c-12.6,0-22.8,10.2-22.8,22.8s10.2,22.8,22.8,22.8,22.8-10.2,22.8-22.8-10.2-22.8-22.8-22.8Z"/>
        <path class="st3" d="M710.3,1537.7c-22.2,0-40.2-18-40.2-40.2s18.1-40.2,40.2-40.2,40.2,18,40.2,40.2-18.1,40.2-40.2,40.2ZM710.3,1474.7c-12.6,0-22.8,10.2-22.8,22.8s10.2,22.8,22.8,22.8,22.8-10.2,22.8-22.8-10.2-22.8-22.8-22.8Z"/>
        <path class="st3" d="M669.1,1490.3c-22.2,0-40.2-18-40.2-40.2s18-40.2,40.2-40.2,40.2,18,40.2,40.2-18.1,40.2-40.2,40.2ZM669.1,1427.2c-12.6,0-22.8,10.2-22.8,22.8s10.2,22.8,22.8,22.8,22.8-10.2,22.8-22.8-10.2-22.8-22.8-22.8Z"/>
        <path class="st3" d="M637.6,1435.8c-22.2,0-40.2-18-40.2-40.2s18.1-40.2,40.2-40.2,40.2,18,40.2,40.2-18,40.2-40.2,40.2ZM637.6,1372.8c-12.6,0-22.8,10.2-22.8,22.8s10.2,22.8,22.8,22.8,22.8-10.2,22.8-22.8-10.2-22.8-22.8-22.8Z"/>
        <path class="st3" d="M615.4,1376.5c-22.2,0-40.2-18-40.2-40.2s18-40.2,40.2-40.2,40.2,18,40.2,40.2-18.1,40.2-40.2,40.2ZM615.4,1313.5c-12.6,0-22.8,10.2-22.8,22.8s10.2,22.8,22.8,22.8,22.8-10.2,22.8-22.8-10.2-22.8-22.8-22.8Z"/>
        <path class="st3" d="M607.4,1313.5c-22.2,0-40.2-18-40.2-40.2s18.1-40.2,40.2-40.2,40.2,18,40.2,40.2-18,40.2-40.2,40.2ZM607.4,1250.4c-12.6,0-22.8,10.2-22.8,22.8s10.2,22.8,22.8,22.8,22.8-10.2,22.8-22.8-10.2-22.8-22.8-22.8Z"/>
      </g>
      <g>
        <path class="st3" d="M998.5,977.1c-22.2,0-40.2-18-40.2-40.2s18-40.2,40.2-40.2,40.2,18,40.2,40.2-18.1,40.2-40.2,40.2ZM998.5,914c-12.6,0-22.8,10.2-22.8,22.8s10.2,22.8,22.8,22.8,22.8-10.2,22.8-22.8-10.2-22.8-22.8-22.8Z"/>
        <path class="st3" d="M935.4,983.9c-22.2,0-40.2-18-40.2-40.2s18-40.2,40.2-40.2,40.2,18,40.2,40.2-18.1,40.2-40.2,40.2ZM935.4,920.8c-12.6,0-22.8,10.2-22.8,22.8s10.2,22.8,22.8,22.8,22.8-10.2,22.8-22.8-10.2-22.8-22.8-22.8Z"/>
        <path class="st3" d="M873.3,995.3c-22.2,0-40.2-18-40.2-40.2s18-40.2,40.2-40.2,40.2,18,40.2,40.2-18.1,40.2-40.2,40.2ZM873.3,932.2c-12.6,0-22.8,10.2-22.8,22.8s10.2,22.8,22.8,22.8,22.8-10.2,22.8-22.8-10.2-22.8-22.8-22.8Z"/>
        <path class="st3" d="M814.2,1017.9c-22.2,0-40.2-18-40.2-40.2s18.1-40.2,40.2-40.2,40.2,18,40.2,40.2-18.1,40.2-40.2,40.2ZM814.2,954.9c-12.6,0-22.8,10.2-22.8,22.8s10.2,22.8,22.8,22.8,22.8-10.2,22.8-22.8-10.2-22.8-22.8-22.8Z"/>
        <path class="st3" d="M759.4,1049.4c-22.2,0-40.2-18-40.2-40.2s18.1-40.2,40.2-40.2,40.2,18,40.2,40.2-18,40.2-40.2,40.2ZM759.4,986.4c-12.6,0-22.8,10.2-22.8,22.8s10.2,22.8,22.8,22.8,22.8-10.2,22.8-22.8-10.2-22.8-22.8-22.8Z"/>
        <path class="st3" d="M710.3,1089.2c-22.2,0-40.2-18-40.2-40.2s18.1-40.2,40.2-40.2,40.2,18,40.2,40.2-18.1,40.2-40.2,40.2ZM710.3,1026.1c-12.6,0-22.8,10.2-22.8,22.8s10.2,22.8,22.8,22.8,22.8-10.2,22.8-22.8-10.2-22.8-22.8-22.8Z"/>
        <path class="st3" d="M669.1,1136.7c-22.2,0-40.2-18-40.2-40.2s18-40.2,40.2-40.2,40.2,18,40.2,40.2-18.1,40.2-40.2,40.2ZM669.1,1073.6c-12.6,0-22.8,10.2-22.8,22.8s10.2,22.8,22.8,22.8,22.8-10.2,22.8-22.8-10.2-22.8-22.8-22.8Z"/>
        <path class="st3" d="M637.6,1191.1c-22.2,0-40.2-18-40.2-40.2s18.1-40.2,40.2-40.2,40.2,18,40.2,40.2-18,40.2-40.2,40.2ZM637.6,1128.1c-12.6,0-22.8,10.2-22.8,22.8s10.2,22.8,22.8,22.8,22.8-10.2,22.8-22.8-10.2-22.8-22.8-22.8Z"/>
        <path class="st3" d="M615.4,1250.4c-22.2,0-40.2-18-40.2-40.2s18-40.2,40.2-40.2,40.2,18,40.2,40.2-18.1,40.2-40.2,40.2ZM615.4,1187.4c-12.6,0-22.8,10.2-22.8,22.8s10.2,22.8,22.8,22.8,22.8-10.2,22.8-22.8-10.2-22.8-22.8-22.8Z"/>
        <path class="st3" d="M1061.5,983.9c-22.2,0-40.2-18-40.2-40.2s18.1-40.2,40.2-40.2,40.2,18,40.2,40.2-18,40.2-40.2,40.2ZM1061.5,920.8c-12.6,0-22.8,10.2-22.8,22.8s10.2,22.8,22.8,22.8,22.8-10.2,22.8-22.8-10.2-22.8-22.8-22.8Z"/>
        <path class="st3" d="M1123.6,995.3c-22.2,0-40.2-18-40.2-40.2s18.1-40.2,40.2-40.2,40.2,18,40.2,40.2-18,40.2-40.2,40.2ZM1123.6,932.2c-12.6,0-22.8,10.2-22.8,22.8s10.2,22.8,22.8,22.8,22.8-10.2,22.8-22.8-10.2-22.8-22.8-22.8Z"/>
        <path class="st3" d="M1182.8,1017.9c-22.2,0-40.2-18-40.2-40.2s18.1-40.2,40.2-40.2,40.2,18,40.2,40.2-18.1,40.2-40.2,40.2ZM1182.8,954.9c-12.6,0-22.8,10.2-22.8,22.8s10.2,22.8,22.8,22.8,22.8-10.2,22.8-22.8-10.2-22.8-22.8-22.8Z"/>
        <path class="st3" d="M1237.6,1049.4c-22.2,0-40.2-18-40.2-40.2s18.1-40.2,40.2-40.2,40.2,18,40.2,40.2-18.1,40.2-40.2,40.2ZM1237.6,986.4c-12.6,0-22.8,10.2-22.8,22.8s10.2,22.8,22.8,22.8,22.8-10.2,22.8-22.8-10.2-22.8-22.8-22.8Z"/>
        <path class="st3" d="M1286.7,1089.2c-22.2,0-40.2-18-40.2-40.2s18.1-40.2,40.2-40.2,40.2,18,40.2,40.2-18.1,40.2-40.2,40.2ZM1286.7,1026.1c-12.6,0-22.8,10.2-22.8,22.8s10.2,22.8,22.8,22.8,22.8-10.2,22.8-22.8-10.2-22.8-22.8-22.8Z"/>
        <path class="st3" d="M1327.9,1136.7c-22.2,0-40.2-18-40.2-40.2s18.1-40.2,40.2-40.2,40.2,18,40.2,40.2-18,40.2-40.2,40.2ZM1327.9,1073.6c-12.6,0-22.8,10.2-22.8,22.8s10.2,22.8,22.8,22.8,22.8-10.2,22.8-22.8-10.2-22.8-22.8-22.8Z"/>
        <path class="st3" d="M1359.4,1191.1c-22.2,0-40.2-18-40.2-40.2s18-40.2,40.2-40.2,40.2,18,40.2,40.2-18.1,40.2-40.2,40.2ZM1359.4,1128.1c-12.6,0-22.8,10.2-22.8,22.8s10.2,22.8,22.8,22.8,22.8-10.2,22.8-22.8-10.2-22.8-22.8-22.8Z"/>
        <path class="st3" d="M1381.6,1250.4c-22.2,0-40.2-18-40.2-40.2s18-40.2,40.2-40.2,40.2,18,40.2,40.2-18.1,40.2-40.2,40.2ZM1381.6,1187.4c-12.6,0-22.8,10.2-22.8,22.8s10.2,22.8,22.8,22.8,22.8-10.2,22.8-22.8-10.2-22.8-22.8-22.8Z"/>
      </g>
    </g>
    <path class="st3" d="M1489,573.6c-5.4-8.4-14.8-12.9-24.5-12.9s-11.9,1.7-17.4,5.2c-6.8,4.4-11.7,11.1-13.7,18.8-1.7,6.3-1.1,12.7,1.3,18.4-1.2.9-2.4,1.8-3.5,2.9,0-3.8-.5-7.6-1.8-11.2-2.7-7.8-8.1-13.8-15.4-16.9-14.9-6.4-32.4,1.2-39.2,16.9-3.2,7.4-3.5,15.6-.9,23.1,2.2,6.5,6.5,11.7,12,15.2,1.1.6,2.3,1.2,3.5,1.8h0c0,2,.3,4.4.6,7.3-5.5,5.2-11,10.5-16.5,16,.2-.3.4-.6.5-.8,6.9-15.8.8-33.7-13.3-41.3,4.3-36.7,2.9-79.6-4.6-128.6-.5-2.5-1.8-4.7-3.9-6.2-2.1-1.5-4.7-2-7.2-1.5-1.1.3-94,20.7-124.1,94.1-3.9-23-6.7-47.9-7.7-75.1,20.7-24.4,24-45.6,15.7-73.5-11.2-37.5-34.6-44.7-44.1-47-9.7-13.3-50.9-62.6-118.9-51.8-10.7-12.9-27.3-24.3-54-31-38.2-9.5-87.1,10.4-118.7,42.8-17.3-6.4-66.9-18.4-122.2,25.6,0-6.9-1.8-13.8-5.8-19.4-4.9-7.1-12.3-11.7-20.6-12.8-16.9-2.3-32.7,10.3-35.2,28.3v1c-1.9-7.5-3.9-15-5.9-22.3,1.8-2.3,3.1-4.3,4.3-5.9h0c1.3.2,2.5.3,3.8.3,6.6,0,12.9-2.3,18.2-6.7,6.1-5.1,10.1-12.3,11.2-20.3,2.3-16.9-8.8-32.4-24.8-34.6-7.9-1.1-15.7,1.2-22,6.4-3,2.4-5.4,5.4-7.2,8.7-.6-1.4-1.1-2.9-1.6-4.3,5-3.7,8.8-8.8,10.7-15.1,2.2-7.6,1.5-15.8-2-23.1-7.5-15.3-25.4-22.2-39.8-15.1-10.2,4.9-16.1,15.4-16.1,26.5s1.1,9.6,3.3,14.1c5.2,10.6,15.4,17.1,26.1,17.7.7,1.8,1.4,3.6,2,5.5-6.8-4.3-14.9-6-22.6-4.6-8,1.4-14.9,5.9-19.1,12.6-4.3,6.7-5.5,14.8-3.4,22.7,2,7.7,6.9,14.2,13.8,18.6,5.3,3.4,11.3,5.2,17.3,5.2s3.6-.2,5.5-.5c6.7-1.2,12.6-4.7,16.8-9.7,1.8.6,4.1,1.2,6.5,1.8,4.7,16.7,9,33.7,13.2,51.2-1.9-.7-3.7-1.4-5.4-2,3-12.2-1.8-25.8-13.1-34-6.9-5.1-15.4-7.4-23.7-6.4-8.6,1-16.1,5.3-21.1,12.1-10.1,13.8-6.3,33.7,8.4,44.4,6.1,4.4,13.1,6.7,20,6.7s14-2.4,19.5-6.8c5,2,12.5,4.9,20.4,7,4.1,16.8,8.3,34.3,13,52.7-6.8-3.8-12.6-7.6-16.4-10.3,3.1-12.2-1.6-26.1-12.9-34.3-7-5.1-15.4-7.3-23.8-6.4-8.6,1-16.1,5.3-21,12.1-5,6.8-6.7,15.2-5.1,23.7,1.7,8.2,6.5,15.5,13.4,20.6,6.1,4.4,13.1,6.6,20.1,6.6s14-2.3,19.4-6.7c7.2,5.1,19.1,12.6,32.7,18.1.4,1.5.7,2.9,1.2,4.3-.5,2.6.3,5.3,2,7.3,3.3,11.7,7.1,23.8,11.1,36.2-5.2-2.1-11.3-5.1-18.1-8.9,1.3-4.6,1.7-9.5.6-14.5-1.7-8.2-6.4-15.6-13.4-20.7-14.7-10.6-34.7-8-44.8,5.7-4.5,6.2-6.2,13.7-5.2,21.3-10.2-1.7-21.1-2.6-32.7-2.4-4.3,0-7.9,3-8.9,7-.4,1.6-36.3,156.1,83.4,216.8,0,4.5,0,9.1.3,13.5-60.9-33.5-123.4-28.2-126.2-27.9-4.2.4-7.5,3.5-8.2,7.7-.6,3.3-12.8,82.2,73.6,141.5,57.4,39.3,102.3,45.9,126.2,45.9,68.2,89.6,213.6,96.5,220.3,96.7.5,0,8.8.9,22.5.9,35.9,0,108.3-6.7,169-53.5,10.1,3.2,34.8,9.9,67.4,9.9s70.2-6.3,109.6-28.2c89.8-49.9,120.8-132.8,114.2-150-4.3-11.1-37-24.3-57.9-30.6-3.5-1-7.5-2-11.6-3.1,1.9-4.3,2.7-9.1,2.2-13.9-.6-8.4-4.8-16-11.7-21.3-6.6-5.1-15-7.6-23.6-6.8-14,1.2-25.2,10.5-28.9,22.6-4.7.4-11.6.6-19.4.3,13.6-13.2,26.3-26,38.4-38.3,7.9,2.3,15.8,3.7,21.1,4.6,2.4,6.6,7.1,12.2,13.2,15.9,5.8,3.5,12.9,5.4,20.5,4.7,18-1.6,31.6-16.6,30.1-33.6-.6-8.4-4.8-16-11.7-21.3-6.7-5.2-15-7.6-23.6-6.8-14,1.1-25,10.3-28.8,22.3-1.8-.3-3.6-.6-5.6-1.1,12.6-12.7,25-25,37.8-37,2.3.8,4.5,1.4,6.5,1.9,1.1,6.5,4.3,12.4,9.4,16.9,1.3,1.2,2.8,2.3,4.3,3.2,5.2,3.1,11.2,4.7,17.5,4.6,8.1-.3,15.7-3.3,21.4-8.9,5.8-5.6,9-13.1,8.8-21.2,0-7.9-3.6-15.2-9.8-20.7-5.9-5.2-13.7-7.9-21.7-7.8,1.5-1.2,3-2.4,4.5-3.6,9.4,5,21.5,4.8,31.5-1.7,14.3-9.2,18.9-27.8,10.2-41.4ZM664.8,324c-1.5,2.2-4,3.8-6.8,4.3-3.2.6-6.6-.2-9.5-2-3-1.8-5-4.6-5.8-7.8-.8-2.9-.4-5.7,1-8,1.5-2.3,3.9-3.9,6.8-4.3.7-.2,1.4-.2,2.1-.2,2.6,0,5.1.7,7.4,2.2,5.8,3.7,7.9,10.8,4.8,15.8ZM678.7,261.5c-.8,2.9-2.7,5.1-5.1,6.3-5.4,2.6-12.2-.4-15.2-6.6-3-6.2-1.1-13.3,4.2-15.9,5.4-2.6,12.1.3,15.2,6.5,1.6,3.1,1.8,6.7.9,9.7ZM672.7,387.4c-4.1,5.5-12.6,6.3-19,1.7-6.4-4.7-8.3-13-4.3-18.7,1.8-2.6,4.8-4.2,8.2-4.6.6,0,1.1,0,1.7,0,3.1,0,6.4,1.1,9.1,3.1,6.4,4.6,8.3,12.9,4.3,18.6ZM701.6,300.3c.5-3.4,2.1-6.5,4.6-8.6,1.9-1.6,4.3-2.4,6.5-2.4s.8,0,1.3,0c5.9.8,9.9,7,9,13.9-.5,3.4-2.1,6.5-4.6,8.6-2.3,1.8-5.1,2.7-7.8,2.3-5.9-.8-9.9-7-9-13.9ZM679.8,452.3c-4.1,5.5-12.7,6.3-19,1.6-3.2-2.3-5.5-5.6-6.2-9.2-.6-3.4,0-6.7,1.8-9.3,1.9-2.6,4.8-4.2,8.2-4.6.6,0,1.1,0,1.7,0,3.2,0,6.4,1.1,9.1,3.1,6.4,4.6,8.3,12.9,4.3,18.6ZM718.9,398.7c-1.2-5-2.4-10-3.6-15,2.1,3,4.7,5.5,7.6,7.5-1,2.1-2.3,4.6-4,7.5ZM1186.3,397.8c7.9,3.2,18.5,10.9,24.9,32.5,9.7,32.5,1.8,52.5-61.9,100.1-47.6,35.6-109.2,43.2-163.5,50.1-11.2,1.4-22,2.8-32.3,4.3,28.9-25.8,64.4-43.8,99-61.4,29.4-15,57.2-29.1,78.3-47,38.2-32.3,51.3-62.8,55.6-78.5ZM918.4,486.2c38.3,13,50.5,18.3,66,28.3,3.7,2.5,6.9,4.7,9.7,6.7,3.4,2.5,6.7,4.8,10.1,6.7-22.2,12.4-44.2,26.5-63.6,43.9-8.6-12.7-30.9-41-66.3-57.1-37.2-16.8-47.4-39.8-36.4-81.9,5.1-19.6,15-28.9,23.1-33.4-6.8,41.1,13,71.5,57.4,86.7ZM1169.6,388.3c-1.8,8.9-10.2,37.2-45.4,69.1.2-5.9-.5-12.2-2.7-18.6-4.3-12.2-13.2-22.1-26.5-29.3-1.3-5.3-6.4-26-10.6-43.9-1.7-7.2-4.1-14.8-7.6-22.4,53.5-4.4,85.1,34.2,92.8,45ZM1020.8,399.6c-12.2-5.9-26.1-6.4-40.2-1.3-11.7,4.1-24.8,14.4-25.3,39.5-8.2-5.6-14.2-12.6-17-20.3-2.8-7.6-2.7-13.7.4-18.8,9.2-15.7,44.8-21.4,56.5-23.3,1.8-.3,3.7-.5,5.5-.5,20.6,0,41.7,17.6,60.4,33.2,5,4.2,9.8,8.1,14.4,11.6-.7,2.8-6.2,10.7-27.3,21.3.3-3.4,0-7-1.3-10.7-4.8-14-14-24.9-26.2-30.9ZM1026.5,448.8c-17.1,3.7-35.8,3-52.3-2.3-1.8-17.6,2.1-27.2,12.6-30.9,9.4-3.3,18.4-3.1,26.1.6,7.7,3.7,13.6,10.9,16.7,20.2,1.7,4.6-1.2,9.7-3,12.4ZM1007.5,313.2c42.5,10.6,53.4,33.5,58.9,56.7,1.8,7.7,3.8,15.9,5.5,23.2-22.1-18.5-49.4-40.7-79.6-35.9-26.1,4.3-57.5,11.6-69.6,32.2-5.8,10-6.5,21.5-1.8,34.4,5.9,16.4,20.1,29.8,40.2,37.8,22.6,9.1,49.8,10.3,73.9,4.2,0,0,.2,0,.3,0,7-1.8,13.8-4.3,20.1-7.3,19.4-9.6,31.4-19.2,36.2-29.2,6.1,4.4,10.3,9.6,12.4,15.7,4.4,12.6-.6,25.9-2.6,30.2-16.8,11.1-36.7,21.3-57.5,31.9-5.5,2.8-10.9,5.5-16.4,8.4-.6,0-1-.3-1.6-.3-8.2.6-12.3-2.4-21.2-8.8-3-2.2-6.5-4.6-10.4-7.2-16.8-10.9-30.6-16.9-70.1-30.4-40.6-13.8-54.2-39.9-41.9-79.7,14.8-47.3,80.2-87,125.1-75.8ZM781.7,378.8c42.5-34.3,80.5-30.4,98.6-25.5-5.6,7.8-10.1,16-13.4,24.5-11.9,2.5-37,12.2-46.9,50.5-13.1,50.3,1.8,83.1,46.8,103.5,34,15.3,54.9,44.9,60.4,53.4-1.9,1.9-3.9,3.8-5.7,5.9-8.9,2.1-17.6,4.6-26.2,7.5-11.2-17.3-44.9-64.6-88-82.6-26.9-11.3-49.4-41-53.6-70.8-2.6-17.8.3-43.8,28.1-66.3ZM786.6,525.8c4.3,2.8,8.9,5.2,13.5,7.1,35.4,14.9,65,54.1,77.2,72.2-50.9,20.1-93.4,52-119.1,90.7-22.2,33.4-32.5,71.1-31.2,112.7-1-3.1-2-6.2-3-9.3-11.8-40.6-10.6-83,2.5-121,.8-1.2,1.4-2.5,1.6-4,3.8-10.3,8.3-20.2,13.9-29.7,32.3-54.3,41.9-96.3,44.6-118.7ZM759.1,544.6c-6-17.6-11.3-34.6-15.9-50.9,2.1-2.6,4-5.1,5.7-7.5,5.5,9.3,12.3,17.9,20,25.5,0,.5.2,1,.3,1.5-.2,4.4-.8,11.8-2.8,21.8-2.2,3-4.6,6.2-7.3,9.6ZM727.9,362.2c1-7.3,6.7-12.7,12.8-12.7s1,0,1.6,0c3.1.5,5.9,2.2,7.9,5.1,2.1,3,3,6.9,2.4,10.9-1,7.5-6.8,12.8-13.3,12.6-.8-.5-1.7-1-2.7-1.2-.6,0-1,0-1.6,0-1.8-.9-3.5-2.1-4.7-3.9-2.1-3-3-6.9-2.5-10.9ZM724.5,422.6c8.5-10.4,13.5-19.6,16.1-25.9,1.1,0,2.2-.3,3.3-.5-8.1,15.8-11.2,33.3-8.6,51.5.8,6.4,2.6,12.7,4.7,18.8-.9,1.6-1.9,3.1-3.1,4.8-4.5-16.9-8.6-33.2-12.4-48.7ZM743.8,556.9c1.1,3.2,2.3,6.6,3.4,9.9,0,0,0,.3.2.4-4.3-4.5-9.5-9.5-15.4-14.4,4.9,1.9,9,3.3,11.8,4.2ZM675.6,507.1c2.2-3.1,5.9-4.7,9.8-4.7s6.4,1,9.1,3c3.2,2.3,5.5,5.6,6.2,9.3.6,3.4,0,6.7-1.8,9.2-1.6,2.3-4.2,3.7-7,4.3-4.6-1.9-9.5-3.8-14.7-5.4-1.6-1.9-2.9-4.1-3.4-6.6-.7-3.4,0-6.7,1.8-9.2ZM630.5,533.6c70.3,1.8,106.8,48,116.2,62-5.5,12.2-12.2,25.4-20.6,39.5-2.3,4-4.4,7.9-6.5,12-1-2.6-1.9-5.3-3.2-7.8-13.7-29.5-34.6-55.8-60.2-75.6-1-.8-2.2.8-1.2,1.6,28.6,28.8,48,66.3,54.3,106.2-5.4,15.2-8.9,31-10.6,47.2-86.5-49.6-73.5-156.3-68.2-185.1ZM647.3,858.4c-62.6-42.9-67.1-96.5-66.4-115.8,19-.3,70.9,2,117.9,31.9.4.2.7.3,1.1.5,1.6,9.8,3.6,19.7,6.5,29.4,1.8,6.4,4.1,12.7,6.5,18.8-7.8-5.9-15.7-11.5-24.1-16.6-20.7-12.4-42.8-22.9-66.3-28.7-.9-.3-1.3,1.1-.5,1.5,10.8,4.9,21.4,10.4,31.7,16.3,24.6,13.8,47.5,30.2,68.7,48.6,4.3,8.3,9,16.4,14.3,24.1,3.6,11.5,8.3,22.2,13.8,32-22.8-2.4-58.9-11.5-103.1-41.9ZM1167.6,946.5c-.3.3-.6.5-.9.8-77,62.3-175.8,51.3-181.8,50.5-1.6,0-113.6-5.4-183.3-65,9.9,6.7,20.2,12.9,31.3,18.6,1.3.6,2.7,1,4.2,1,3.3,0,6.6-1.9,8.2-5.1,2.3-4.6.5-10.2-4.1-12.5-36.4-18.4-66.2-43.9-87.6-74.4-1-3.4-2-6.8-2.8-10.4-12-54.7-4.3-103.1,22.8-144,30.7-46.2,87.7-82.1,154.5-97.7.3,0,.6,0,.8-.2,4.6-1.1,9.2-2,14-2.9,13.8-2.6,29-4.5,45.2-6.5,53.8-6.8,120.8-15.2,172.3-53.7,14-10.4,25.6-19.8,35.2-28.6,4,63.1,17.7,113,30,157.4,19.3,69.9,34.6,125,.5,196.5-15.7,33-36.1,57.6-58.6,76ZM1364.9,738.1c3.3-.3,6.7.5,9.3,2.1.5.3.9.6,1.4.9,2.7,2.1,4.3,5.1,4.6,8.2.3,3-.7,6-3,8.4-7.8-1.3-16.1-2.3-24.7-2.8-.5-1.1-.9-2.1-1.1-3.2-.6-6.8,5.5-12.9,13.4-13.7ZM1448.6,802.7c-.7,13.7-26.5,82.6-105.7,126.7-61.8,34.3-123.2,26.2-150.9,19.8,14.6-13.8,28.2-30.3,40-50.2.3-.5.6-.7,1-1.2,20.4-21.6,45-39.4,71.4-53.1,27.6-14.5,58.1-23.1,89.3-24.7,1.4,0,2.5-1,2.5-2.4s-1.1-2.5-2.5-2.5c-16,0-32.2.7-48,4.3-34.2,7.2-66.6,21.8-95.4,41.6,9-23.4,13.2-45.5,14.2-66.8,69.9-46.8,170.3-2.7,184,8.5ZM1309.7,704.1c-18,23.1-38.3,31.6-49.2,34.7-3-17.2-7.3-34.5-12.1-52.2,7-24.8,16.4-50.3,27.4-73.9,11.8-24.9,26.7-48.1,43.2-70.4.6-.7-.5-1.7-1.1-1.1-34.9,28.9-64.1,66.6-79.3,109.6-2.8-10.3-5.5-21.1-8.2-32.2,2.4-80,81-110.2,109-118.5,12.8,92.2,2.5,162.5-29.7,203.9ZM1345.9,685.7c0-3.2.2-6.1.5-8.4,3.5-.3,7-1,10.3-2.5-3.6,3.6-7.2,7.3-10.8,10.9ZM1357.1,649.9c-.8,2-2.2,3.8-3.8,5.2,1.6-5.4,2.9-10.9,4.1-16.7,1.4,3.5,1.5,7.6-.3,11.5ZM1404.6,686.3c3.4-.3,6.7.5,9.4,2.1.5.3.9.6,1.4.9,2.7,2.1,4.3,5,4.6,8.2.6,6.8-5.5,12.9-13.3,13.7-7.9.6-14.9-4.4-15.4-11.3-.6-6.9,5.5-13,13.3-13.7ZM1411.6,610.5c-2.7,6.4-9.3,9.6-14.8,7.2-2.5-1-4.4-3.1-5.4-6-1.1-3-.9-6.5.5-9.7,2.7-6.4,9.3-9.6,14.8-7.2.4.2.8.4,1.1.6,2,1.2,3.5,3,4.3,5.5,1,3,.8,6.6-.6,9.7ZM1443.2,638.8c2.7,0,5.3.6,7.4,1.9.6.4,1.2.7,1.8,1.3,2.2,1.9,3.5,4.5,3.6,7.2,0,2.8-1.1,5.4-3.2,7.4-2.4,2.3-5.5,3.6-9.1,3.7-3.5,0-6.7-1.1-9.2-3.2-2.2-1.9-3.4-4.5-3.5-7.3,0-5.9,5.4-10.8,12.3-11ZM1468.8,599.5c-5.7,3.7-13.1,2.7-16.3-2.3-1.5-2.2-1.9-5.1-1.2-7.9.8-3.1,2.9-5.9,5.8-7.9,5.8-3.7,13.1-2.7,16.4,2.3,3.2,5,1.1,12-4.7,15.8Z"/>
    <g>
      <g>
        <path class="st4" d="M950,935.8s-9.8-23.4-69.7-34.4c-59.9-11-152.1-51-165.5-67.2"/>
        <path class="st4" d="M966.1,924s-69.6-77.1-183.7-109.1c-114.1-32-120.7,43.1-110.5,87.2,10.2,44.1-47.3,94.7,24.5,123.7,71.7,28.9,198.1-9.5,253.6-40.8"/>
        <path class="st4" d="M942.9,961.1s-40.8.3-81-9.3"/>
        <path class="st4" d="M998.5,979s-69.7,145.8-215.6,207.8c0,0,3.3-45.7,2.4-60.2,0,0-46.1-5.2-77.5-33.4,0,0,69.5-18.7,127.1-66.5"/>
        <path class="st4" d="M998.5,1007.6c17.4,0,53.3-2.3,53.3-46.4,0-44.1-53.3-47.8-53.3-47.8,0,0-53.3,3.7-53.3,47.8s35.9,46.4,53.3,46.4Z"/>
        <path class="st4" d="M1047,935.8s9.8-23.4,69.7-34.4c59.9-11,152.1-51,165.5-67.2"/>
        <path class="st4" d="M1030.9,924s69.6-77.1,183.7-109.1c114.1-32,120.7,43.1,110.5,87.2-10.2,44.1,47.3,94.7-24.5,123.7-71.7,28.9-198.1-9.5-253.6-40.8"/>
        <path class="st4" d="M1054.1,961.1s40.8.3,81-9.3"/>
        <path class="st4" d="M1009,980.7s59.2,144,205.2,206c0,0-3.3-45.7-2.4-60.2,0,0,46.1-5.2,77.5-33.4,0,0-69.5-18.7-127.1-66.5"/>
      </g>
      <g>
        <path class="st3" d="M941.5,939.3c-19.8-21.9-53.2-24.8-80.9-31.6-47.6-13.1-95-30.9-135.1-60.4-3.2-2.1-19-15.9-9.5-14.6,8.2,6.1,18.6,10,28.4,14.2,39.5,15.7,79.8,30.6,121.2,40.5,30.3,6.8,64,11.4,86.5,35.3,2.7,3.2,4.3,5,6.4,9.5,4.4,11.2-12.1,18.2-17,7.1h0Z"/>
        <path class="st3" d="M758.3,1045.2c-23.7,0-46.2-3.2-65.3-10.9-54.5-22-44-58.3-35.6-87.5,4.4-15.2,8.6-29.6,5.5-42.7-3.2-13.7-11.3-60.6,17.3-87.8,21.3-20.3,56.5-23.8,104.7-10.3,115.4,32.4,185.1,108.6,188.1,111.9,3.4,3.8,3.1,9.6-.7,13-3.8,3.4-9.6,3.1-13-.7-.7-.8-69.3-75.6-179.3-106.4-41.4-11.6-70.7-9.6-86.9,5.9-21.5,20.5-14.6,59-12,70.3,4.1,17.7-.9,35.1-5.8,51.9-8.6,29.8-14.3,49.5,24.7,65.2,65.4,26.3,186.7-7.1,245.6-40.2,4.4-2.5,10.1-.9,12.6,3.5,2.5,4.4.9,10.1-3.5,12.6-39.8,22.5-124,52.2-196.2,52.2Z"/>
        <path class="st3" d="M943,970.4c-27.7-2.8-55-8.4-81.4-17.3-.7-.2-1.1-1-.8-1.7.2-.6.8-1,1.4-.9,26.7,3.5,54,3.8,80.7,1.3,13.3-1,13.5,19.3,0,18.5h0Z"/>
        <path class="st3" d="M782.9,1196c-1.9,0-3.8-.6-5.4-1.7-2.6-1.9-4.1-5-3.8-8.2,0-.4,2.4-33.6,2.5-51.6-15.3-2.9-49.1-11.5-74.5-34.5-2.5-2.3-3.6-5.7-2.8-9s3.3-5.9,6.6-6.8c.7-.2,68.3-18.8,123.6-64.7,3.9-3.3,9.7-2.7,13,1.2,3.3,3.9,2.7,9.8-1.2,13-41.5,34.5-88.4,54.1-113.2,62.8,27.1,17.1,58.3,20.8,58.7,20.9,4.5.5,7.9,4.2,8.2,8.7.5,9.5-.6,31.1-1.5,46,129.9-61.1,171.9-166.7,172.4-167.8,1.8-4.8,7.2-7.1,11.9-5.3,4.8,1.8,7.1,7.2,5.3,11.9-1.9,4.9-48.4,121.5-196.2,184.3-1.2.5-2.4.7-3.6.7Z"/>
        <path class="st3" d="M998.5,1016.9c-51.7,0-62.5-30.3-62.5-55.6,0-41.7,40.5-55.5,61.9-57,.4,0,.8,0,1.3,0,21.4,1.5,61.9,15.3,61.9,57s-10.8,55.6-62.5,55.6ZM998.5,922.8c-5.7.6-44,5.5-44,38.5s13.2,37.1,44,37.1,44-11.1,44-37.1-38.3-37.9-44-38.5Z"/>
        <path class="st3" d="M1038.5,932.2c18.7-32.4,60-37.1,92.9-44.8,41.3-9.9,81.6-24.8,121.2-40.5,9.8-4.2,20.2-8.1,28.4-14.2,1.6-1.3,4,1,2.7,2.6-14.4,17.4-35.2,27.4-54.6,37.8-39.2,19.5-81.3,33.4-124.3,41.5-17.9,4.8-37.3,10.9-49.2,24.7-4.8,11-21.5,4.2-17-7.1h0Z"/>
        <path class="st3" d="M1238.7,1045.2c-72.3,0-156.3-29.8-196.2-52.2-4.4-2.5-6-8.1-3.5-12.6,2.5-4.4,8.1-6,12.6-3.5,58.9,33.2,180.2,66.6,245.6,40.2,39-15.7,33.3-35.4,24.7-65.2-4.9-16.8-9.9-34.2-5.8-51.9,2.6-11.3,9.5-49.8-12-70.3-16.3-15.5-45.5-17.5-86.9-5.9-110,30.9-178.7,105.7-179.3,106.4-3.4,3.8-9.3,4.1-13,.7-3.8-3.4-4.1-9.3-.7-13,2.9-3.2,72.7-79.5,188.1-111.9,48.2-13.5,83.4-10.1,104.7,10.3,28.5,27.3,20.4,74.1,17.3,87.8-3,13,1.1,27.4,5.5,42.7,8.4,29.2,18.9,65.5-35.6,87.5-19.2,7.7-41.6,10.9-65.4,10.9Z"/>
        <path class="st3" d="M1054.2,951.9c26.7,2.4,53.9,2.2,80.6-1.3.7-.1,1.4.4,1.5,1.1,0,.6-.3,1.2-.9,1.4-26.3,8.8-53.6,14.4-81.4,17.3-13.4.8-13.3-19.5.2-18.5h0Z"/>
        <path class="st3" d="M1214.1,1196c-1.2,0-2.5-.2-3.6-.7-147.8-62.8-194.3-179.4-196.2-184.3-1.8-4.8.5-10.1,5.3-11.9,4.8-1.8,10.1.5,12,5.3.4,1.1,42.9,106.9,172.4,167.8-.9-14.9-2-36.5-1.5-46,.3-4.5,3.7-8.1,8.2-8.7.4,0,31.7-3.8,58.7-20.9-24.8-8.7-71.7-28.3-113.2-62.8-3.9-3.3-4.5-9.1-1.2-13,3.3-3.9,9.1-4.5,13-1.2,55.3,45.9,122.9,64.5,123.6,64.7,3.3.9,5.8,3.5,6.6,6.8s-.3,6.7-2.8,9c-25.4,22.9-59.2,31.6-74.5,34.5.2,18,2.5,51.2,2.5,51.6.2,3.2-1.2,6.3-3.8,8.2-1.6,1.1-3.5,1.7-5.4,1.7Z"/>
      </g>
    </g>
  </g>
  <g id="expression">
    <g>
      <path class="st3" d="M995.3,1390.8c-26,0-38.6-21.4-39.1-22.3-1.5-2.7-.6-6.2,2.1-7.7.8-.5,1.8-.7,2.8-.7,2,0,3.9,1.1,4.9,2.8.4.7,10,16.6,29.3,16.6s27.1-15.6,27.4-16.3c.9-1.9,2.9-3.1,5.1-3.1s1.7.2,2.4.6c2.8,1.4,4,4.7,2.6,7.5-.4.9-11.1,22.6-37.6,22.6Z"/>
      <g>
        <path class="st2" d="M941.1,1297c-1.2-20.8-9.3-60.1-53-71.4-53.6-13.8-98.7,35.6-87.6,90.6,9.6,47.8,50.2,70.2,91.7,59,47.2-12.6,49.8-61.5,48.9-78.3Z"/>
        <path class="st3" d="M936.4,1297.3c-.7-39.2-29.5-71.7-69.8-69.2-88.4,7-81,149.1,8.3,145.3,41.4-.8,64.4-37.2,61.5-76h0ZM945.7,1296.7c2.9,43.7-24,84.2-70.3,84.9-100.9,3.8-109.1-154.1-9.2-162.6,45.3-3,78.9,33.9,79.5,77.7h0Z"/>
        <path class="st3" d="M888.8,1248.6c-33-1.9-52.3,25.9-53.2,58.8-1.1,37.6,22.8,55.7,50.6,53.1,25.2-2.3,44.1-25,44.1-56s-14.8-54.4-41.5-55.9ZM908.7,1294.7c-6.3,2.6-14.1-2.1-17.6-10.6-3.4-8.4-1.1-17.3,5-19.8,6.3-2.5,14,2.2,17.5,10.6,3.5,8.4,1.2,17.3-4.9,19.8Z"/>
        <g class="st6">
          <path class="st2" d="M852.9,1326c0-13.6,60.1-13.6,60.1,0s-13.5,24.6-30.1,24.6-30.1-11-30.1-24.6Z"/>
        </g>
      </g>
      <g>
        <path class="st2" d="M1050.1,1297c1.2-20.8,9.3-60.1,53-71.4,53.6-13.8,98.7,35.6,87.6,90.6-9.6,47.8-50.2,70.2-91.7,59-47.2-12.6-49.8-61.5-48.9-78.3Z"/>
        <path class="st3" d="M1045.5,1296.7c.7-43.8,34.1-80.8,79.5-77.9,100.8,8.4,92.3,167.5-9.3,163.7-46.5-.9-73.7-42.2-70.3-85.8h0ZM1054.7,1297.3c-3.3,39,19.8,75.9,61.5,77,90,3.8,97.6-139.5,8.4-146.4-40-2.5-69.4,30.5-69.8,69.4h0Z"/>
        <path class="st3" d="M1060.9,1304.5c0,31,18.9,53.7,44.1,56,27.8,2.6,51.7-15.5,50.6-53.1-.9-33-20.3-60.7-53.2-58.8-26.7,1.5-41.5,25-41.5,55.9ZM1077.5,1274.9c3.5-8.4,11.2-13.2,17.5-10.6,6.2,2.5,8.4,11.4,5,19.8-3.5,8.5-11.3,13.3-17.6,10.6-6.2-2.5-8.4-11.4-4.9-19.8Z"/>
        <g class="st6">
          <path class="st2" d="M1138.3,1326c0-13.6-60.1-13.6-60.1,0,0,13.6,13.5,24.6,30.1,24.6,16.6,0,30.1-11,30.1-24.6Z"/>
        </g>
      </g>
    </g>
  </g>
</svg>